<svg xmlns="http://www.w3.org/2000/svg" viewBox="0 0 160 160"><defs><style>.cls-1{isolation:isolate;}.cls-2{fill:#ef9ab5;}.cls-3{opacity:0.66;}.cls-3,.cls-8,.cls-9{mix-blend-mode:multiply;}.cls-4{fill:#e5acb5;}.cls-5{fill:#fbabc2;}.cls-6{fill:#ef819f;}.cls-7{fill:#ba5d6f;}.cls-8{opacity:0.22;}.cls-9{opacity:0.09;}</style></defs><title>무제-2</title><g class="cls-1"><g id="레이어_1" data-name="레이어 1"><path class="cls-2" d="M108.66,32.81c4.46-4.78,10.79-7.48,17.22-8.67,5.29-1,11-1.59,16.25,0s4.32,6.43,3.82,11.38a44.17,44.17,0,0,1-14.09,28.14"/><path class="cls-2" d="M51.34,32.81C46.88,28,40.55,25.33,34.12,24.14c-5.29-1-11-1.59-16.25,0s-4.32,6.43-3.82,11.38A44.17,44.17,0,0,0,28.14,63.67"/><g class="cls-3"><path class="cls-4" d="M114.22,39.53a17.49,17.49,0,0,1,9.7-4.88c3-.56,6.19-.9,9.15,0s2.43,3.62,2.15,6.42a24.87,24.87,0,0,1-7.94,15.84"/></g><g class="cls-3"><path class="cls-4" d="M45.78,39.53a17.49,17.49,0,0,0-9.7-4.88c-3-.56-6.19-.9-9.15,0s-2.43,3.62-2.15,6.42a24.87,24.87,0,0,0,7.94,15.84"/></g><path class="cls-5" d="M140.78,95.38c-.82-5.52-3-10.78-3.63-16.33-.55-5,.66-10.12-.62-14.93A61.8,61.8,0,0,0,131.75,53,53.78,53.78,0,0,0,114.5,33.35c-8.75-6-20.45-8.27-32.2-8-11.75-.32-23.45,2-32.2,8A53.78,53.78,0,0,0,32.85,53a61.8,61.8,0,0,0-4.78,11.15c-1.28,4.81-.07,10-.62,14.93-.62,5.55-2.81,10.81-3.63,16.33-4.5,30.22,25,41.42,54.2,42.93v.17c1.42,0,2.85,0,4.28,0s2.86.05,4.28,0v-.17C115.77,136.8,145.28,125.6,140.78,95.38Z"/><path class="cls-6" d="M76.79,102.9a13.64,13.64,0,0,1,6.73-.77,80.75,80.75,0,0,0,8.17,1.31,13.89,13.89,0,0,0,14.36-11.3c1-6.11-1.65-12.77-5.57-17.39a18.51,18.51,0,0,0-3-2.87,29.69,29.69,0,0,0-25.79-4.5C62.52,70.16,54.77,79,54.87,88.87c.05,5.51,3.17,11.13,8.28,13.2a24.89,24.89,0,0,0,11,1.45A11.6,11.6,0,0,0,76.79,102.9Z"/><path class="cls-7" d="M51.1,78.34c5.72,0,5.72-8.86,0-8.86s-5.71,8.86,0,8.86Z"/><path class="cls-7" d="M109.53,78.34c5.72,0,5.72-8.86,0-8.86s-5.71,8.86,0,8.86Z"/><path class="cls-7" d="M71.16,92.74c6.43,0,6.43-10,0-10s-6.43,10,0,10Z"/><path class="cls-7" d="M89.94,92.74c6.43,0,6.43-10,0-10s-6.43,10,0,10Z"/><g class="cls-8"><path class="cls-4" d="M47.75,100.35c3.84-3.61,3.47-10.67-1.53-13.11-4.32-2.11-12.36-.76-14.75,3.65a7.88,7.88,0,0,0,0,7,9.62,9.62,0,0,0,5.39,4.69A10.94,10.94,0,0,0,47.75,100.35Z"/></g><g class="cls-8"><path class="cls-4" d="M113.72,100.35c-3.84-3.61-3.47-10.67,1.53-13.11,4.32-2.11,12.35-.76,14.75,3.65a7.85,7.85,0,0,1,0,7,9.57,9.57,0,0,1-5.38,4.69A10.93,10.93,0,0,1,113.72,100.35Z"/></g><g class="cls-9"><path class="cls-4" d="M140.78,95.38c-.82-5.52-3-10.78-3.63-16.33-.55-5,.66-10.12-.62-14.93A61.8,61.8,0,0,0,131.75,53,53.78,53.78,0,0,0,114.5,33.35a44.73,44.73,0,0,0-16-6.53c9.62,6.71,16.51,18.6,20.88,28.71a32.49,32.49,0,0,1,2.81,14.81c-.17,4.2,1.19,7.1,2.14,11.08,2.06,8.62,2.2,19.68-2.14,27.65-7.47,13.69-24,20.28-38.87,22-10.13,2.29-21,2.71-31.23,2.78A104.12,104.12,0,0,0,78,138.31v.17c1.42,0,2.85,0,4.28,0s2.86.05,4.28,0v-.17C115.77,136.8,145.28,125.6,140.78,95.38Z"/></g><g class="cls-9"><path class="cls-4" d="M100.48,74.75A19.06,19.06,0,0,0,98,72.28a16.22,16.22,0,0,1,.88,2.48c2.28,8.95-1.41,16.86-8.27,22.69a60.12,60.12,0,0,1-6.41,4.8,71.21,71.21,0,0,0,7.54,1.19,13.89,13.89,0,0,0,14.36-11.3C107,86,104.4,79.37,100.48,74.75Z"/></g></g></g></svg>