<svg xmlns="http://www.w3.org/2000/svg" viewBox="0 0 160 160"><defs><style>.cls-1{isolation:isolate;}.cls-2{fill:#ffc643;}.cls-3{fill:#ef366a;}.cls-4{fill:#aa8724;}.cls-5{fill:#f4924a;}.cls-6{opacity:0.25;mix-blend-mode:multiply;}.cls-7{fill:#ffd843;}</style></defs><title>무제-2</title><g class="cls-1"><g id="레이어_1" data-name="레이어 1"><path class="cls-2" d="M134.45,98.7a63.75,63.75,0,0,0-12.17-33.12A55.54,55.54,0,0,0,95.2,45.31a53.09,53.09,0,0,0-30.41,0A55.54,55.54,0,0,0,37.71,65.58,63.66,63.66,0,0,0,25.54,98.7c-.53,8.83,1,17.9,5.29,25.64,11.08,20.09,38.36,24.08,59.09,21.75,15.52-1.76,31.25-7.27,39.23-21.75C133.43,116.6,135,107.53,134.45,98.7Z"/><path class="cls-3" d="M73.12,102.35c.86,1.91-.34,4.07-1.5,5.81l-3.48,5.23A19,19,0,0,0,65.25,119a6.52,6.52,0,0,0,1.12,6,6,6,0,0,0,5.9,1.47,10.3,10.3,0,0,0,5.13-3.65,8.3,8.3,0,0,0,10.47,8.57,10.06,10.06,0,0,0,6.71-7.21,16,16,0,0,0-1-10.09,39.59,39.59,0,0,0-5.44-8.73,16.17,16.17,0,0,0-3.89-4"/><path class="cls-4" d="M63.58,92.85c4.51,0,4.51-7,0-7s-4.52,7,0,7Z"/><path class="cls-4" d="M96.41,91.51c4.51,0,4.51-7,0-7s-4.51,7,0,7Z"/><path class="cls-5" d="M93,95.31c-.23-.61-.93-.87-1.55-1a43.15,43.15,0,0,0-11.12-1.63v0l-.34,0-.34,0v0a43.08,43.08,0,0,0-11.11,1.63,2.16,2.16,0,0,0-1.56,1c-.34.9,2.5,4.42,3,5.17a28.8,28.8,0,0,0,4.22,4.61,28.3,28.3,0,0,0,4.08,3.37,3.51,3.51,0,0,0,3.33,0,28.3,28.3,0,0,0,4.08-3.37A29.28,29.28,0,0,0,90,100.48C90.51,99.73,93.35,96.21,93,95.31Z"/><g class="cls-6"><path class="cls-7" d="M134.45,98.63a63.64,63.64,0,0,0-12.22-33.09A55.6,55.6,0,0,0,95.11,45.31,41.06,41.06,0,0,0,89,43.85c6.47,5.82,12.42,12.17,17,19.57,6.38,10.41,9.68,23.2,6.6,35C109.23,111.18,99.14,121,88.67,129c-8.52,6.52-17.73,12.38-27.92,15.72A88.37,88.37,0,0,0,90,146.1c15.52-1.78,31.24-7.32,39.2-21.81C133.47,116.53,135,107.46,134.45,98.63Z"/></g><path class="cls-3" d="M63.54,46c.93-3.56,3.05-6.68,5.22-9.66a70.19,70.19,0,0,1,5.55-6.86,41.35,41.35,0,0,1,4.3-4c10.68-8.55,28.06-13.92,41.15-8.22,3.1,1.35,7.14,4.5,7.59,8a10.53,10.53,0,0,1-2.5,8.71c-1,1.1-6.14,5.12-7.86,3.92,4.43,3.08,9.48,11.27,5.83,16.64-4.3,6.32-15.43,1.42-19.55-2.49a28.57,28.57,0,0,1-.39,6.92,9.54,9.54,0,0,1-3.55,5.8C95.12,67.72,90,64.51,87.16,61c-2.42-3-3.12-7.34-5.71-10.2-2.74-3-8.24-4.37-12.15-4.67"/><g class="cls-6"><path class="cls-7" d="M63.31,102.78c2.3-9.11-10.76-10.34-15.47-5a5.1,5.1,0,0,0-1.17,4.71c.92,3.78,3.58,5.34,7.47,5.61,2.91.2,6.32-.55,8.06-3A7.06,7.06,0,0,0,63.31,102.78Z"/></g><g class="cls-6"><path class="cls-7" d="M113.21,102.78c2.3-9.11-10.76-10.34-15.47-5a5.1,5.1,0,0,0-1.17,4.71c.93,3.78,3.58,5.34,7.48,5.61,2.91.2,6.31-.55,8.06-3A7,7,0,0,0,113.21,102.78Z"/></g></g></g></svg>