<svg xmlns="http://www.w3.org/2000/svg" viewBox="0 0 160 160"><defs><style>.cls-1{isolation:isolate;}.cls-2{fill:#f4e2ca;}.cls-3{opacity:0.22;}.cls-3,.cls-7{mix-blend-mode:multiply;}.cls-4{fill:#af9474;}.cls-5{fill:#ffd843;}.cls-6{fill:#d3ad35;}.cls-7{opacity:0.3;}</style></defs><title>무제-2</title><g class="cls-1"><g id="레이어_1" data-name="레이어 1"><path class="cls-2" d="M139.09,90.47C140,76,134.44,61.3,127.24,48.31,121,37.09,111.5,28,99.19,23.83a68.75,68.75,0,0,0-23-3.55c-15.2.26-30.68,5.92-40.39,18-7.53,9.41-10.31,21.5-12.92,33C20.47,81.84,19.74,93,23,103.26c4.54,14.18,17.34,22.83,30.91,27.3C69.57,135.7,85,136,101,132.66l2.58-.55c15.68-3.3,29.31-16.07,33.72-31.46A48.65,48.65,0,0,0,139.09,90.47Z"/><g class="cls-3"><path class="cls-2" d="M127.24,48.31C121,37.09,111.5,28,99.19,23.83a68.41,68.41,0,0,0-13.86-3.08c8.51,4.88,16.28,14,20.47,20,10.66,15.1,16.93,35.74,13.17,54.1-2.88,14.1-10.44,29-21.89,38.58,1.31-.23,2.62-.47,3.94-.74l2.58-.55c15.68-3.3,29.31-16.07,33.72-31.46a48.65,48.65,0,0,0,1.77-10.18C140,76,134.44,61.3,127.24,48.31Z"/></g><path class="cls-4" d="M61.22,76.27c5.64,0,5.64-8.75,0-8.75s-5.65,8.75,0,8.75Z"/><path class="cls-4" d="M98.78,76.27c5.65,0,5.65-8.75,0-8.75s-5.64,8.75,0,8.75Z"/><path class="cls-5" d="M104.27,92.55c2.46-.88,7.06-3.61,7.1-6.54,0-3.79-4.71-3.69-7.45-3.68a16.34,16.34,0,0,1-8-2c-3.68-2-6.89-5.51-10.94-7.18a12,12,0,0,0-5-.87,12,12,0,0,0-5,.87C71,74.79,67.75,78.27,64.07,80.3a16.34,16.34,0,0,1-8,2c-2.74,0-7.5-.11-7.45,3.68,0,2.93,4.64,5.66,7.1,6.54a132,132,0,0,0-5.55,26c-.36,3.29-.58,6.7.59,9.8,2.88,7.61,12.61,10.86,20.19,12.26a50.85,50.85,0,0,0,18.08,0c7.58-1.4,17.31-4.65,20.19-12.26,1.17-3.1,1-6.51.59-9.8A132,132,0,0,0,104.27,92.55Z"/><path class="cls-6" d="M73.28,87.82c2.82,0,2.82-4.38,0-4.38s-2.82,4.38,0,4.38Z"/><path class="cls-6" d="M86.72,87.82c2.82,0,2.82-4.38,0-4.38s-2.82,4.38,0,4.38Z"/><g class="cls-7"><path class="cls-5" d="M111.37,86c0-3.79-4.71-3.69-7.45-3.68a16.34,16.34,0,0,1-8-2c-2.42-1.34-4.65-3.3-7-5,1.82,9.4.56,19.35-4.31,27.57S71.94,117,65.5,124a45,45,0,0,0-8.1,11.81A40.33,40.33,0,0,0,71,140.57a50.85,50.85,0,0,0,18.08,0c7.58-1.4,17.31-4.65,20.19-12.26,1.17-3.1,1-6.51.59-9.8a132,132,0,0,0-5.55-26C106.73,91.67,111.33,88.94,111.37,86Z"/></g></g></g></svg>