<svg xmlns="http://www.w3.org/2000/svg" viewBox="0 0 160 160"><defs><style>.cls-1{isolation:isolate;}.cls-2{fill:#77d2ac;}.cls-3{fill:#2e2c26;}.cls-4{fill:#f4f4f4;}.cls-5,.cls-9{mix-blend-mode:multiply;}.cls-6{fill:#c4c4c4;}.cls-7{fill:#ff8b84;}.cls-8,.cls-9{fill:#6d6d6d;}.cls-9{opacity:0.6;}.cls-10{fill:#fff;}</style></defs><title>무제-2</title><g class="cls-1"><g id="레이어_1" data-name="레이어 1"><rect class="cls-2" x="8.19" y="28.51" width="144.32" height="113.87" rx="8.12"/><path class="cls-3" d="M144.38,29.51a7.12,7.12,0,0,1,7.13,7.12v97.62a7.13,7.13,0,0,1-7.13,7.13H16.31a7.13,7.13,0,0,1-7.12-7.13V36.63a7.12,7.12,0,0,1,7.12-7.12H144.38m0-2H16.31a9.13,9.13,0,0,0-9.12,9.12v97.62a9.14,9.14,0,0,0,9.12,9.13H144.38a9.15,9.15,0,0,0,9.13-9.13V36.63a9.14,9.14,0,0,0-9.13-9.12Z"/><rect class="cls-4" x="9.19" y="29.51" width="142.32" height="111.87" rx="7.12"/><g class="cls-5"><path class="cls-4" d="M16.31,29.5h0l-.26,0Z"/><path class="cls-4" d="M145.11,29.54a6.94,6.94,0,0,1,6.25,7.07l-1.92,94.6a7,7,0,0,1-7,6.7H18.3a7,7,0,0,1-7-6.7L9.33,36.61a7,7,0,0,1,6.25-7.07,7.13,7.13,0,0,0-6.39,7.09v97.62a7.13,7.13,0,0,0,7.12,7.13H144.38a7.13,7.13,0,0,0,7.13-7.13V36.63A7.14,7.14,0,0,0,145.11,29.54Z"/></g><circle class="cls-6" cx="29.76" cy="70.41" r="4.57"/><circle class="cls-6" cx="46.62" cy="70.41" r="4.57"/><circle class="cls-6" cx="63.48" cy="70.41" r="4.57"/><circle class="cls-6" cx="80.35" cy="70.41" r="4.57"/><circle class="cls-6" cx="97.21" cy="70.41" r="4.57"/><circle class="cls-6" cx="114.08" cy="70.41" r="4.57"/><circle class="cls-6" cx="130.94" cy="70.41" r="4.57"/><circle class="cls-6" cx="29.76" cy="88.49" r="4.57" transform="translate(-31.45 18) rotate(-22.38)"/><circle class="cls-6" cx="46.62" cy="88.49" r="4.57" transform="translate(-30.18 24.42) rotate(-22.38)"/><circle class="cls-6" cx="63.48" cy="88.49" r="4.57" transform="translate(-28.91 30.84) rotate(-22.38)"/><circle class="cls-6" cx="80.35" cy="88.49" r="4.57" transform="translate(-39.04 82.73) rotate(-45)"/><circle class="cls-6" cx="97.21" cy="88.49" r="4.57" transform="translate(-26.37 43.68) rotate(-22.38)"/><circle class="cls-7" cx="114.08" cy="88.49" r="4.57" transform="translate(-25.1 50.1) rotate(-22.38)"/><circle class="cls-6" cx="130.94" cy="88.49" r="4.57" transform="translate(-23.83 56.52) rotate(-22.38)"/><circle class="cls-6" cx="29.76" cy="106.58" r="4.57"/><circle class="cls-6" cx="46.62" cy="106.58" r="4.57"/><circle class="cls-6" cx="63.48" cy="106.58" r="4.57"/><circle class="cls-6" cx="80.35" cy="106.58" r="4.57"/><circle class="cls-6" cx="97.21" cy="106.58" r="4.57"/><circle class="cls-6" cx="114.08" cy="106.58" r="4.57"/><circle class="cls-6" cx="130.94" cy="106.58" r="4.57"/><circle class="cls-6" cx="29.76" cy="124.66" r="4.57" transform="translate(-48.46 23.14) rotate(-24.19)"/><circle class="cls-6" cx="46.62" cy="124.66" r="4.57" transform="translate(-46.98 30.05) rotate(-24.19)"/><circle class="cls-6" cx="63.48" cy="124.66" r="4.57" transform="translate(-45.5 36.95) rotate(-24.19)"/><circle class="cls-6" cx="80.35" cy="124.66" r="4.57" transform="translate(-65.38 97.09) rotate(-46.48)"/><circle class="cls-6" cx="97.21" cy="124.66" r="4.57" transform="translate(-42.54 50.77) rotate(-24.19)"/><circle class="cls-6" cx="114.08" cy="124.66" r="4.57" transform="translate(-41.06 57.68) rotate(-24.19)"/><circle class="cls-6" cx="130.94" cy="124.66" r="4.57" transform="translate(-39.58 64.59) rotate(-24.19)"/><path class="cls-2" d="M16.31,29.51H144.38a7.12,7.12,0,0,1,7.12,7.12V57a0,0,0,0,1,0,0H9.19a0,0,0,0,1,0,0V36.63a7.12,7.12,0,0,1,7.12-7.12Z"/><path class="cls-8" d="M21.36,33.81h0a2.43,2.43,0,0,1-2.42-2.42V23a2.43,2.43,0,0,1,2.42-2.42h0A2.43,2.43,0,0,1,23.79,23v8.36A2.43,2.43,0,0,1,21.36,33.81Z"/><path class="cls-9" d="M21.36,20.61a2.24,2.24,0,0,0-.57.08,2.33,2.33,0,0,1,1,.49l.1.09a1,1,0,0,1,.17.18c0,.05.08.09.12.15l.13.18c0,.06.07.13.11.2l.08.18a2.76,2.76,0,0,1,.08.27.83.83,0,0,1,0,.15,2.3,2.3,0,0,1,0,.45v8.36a2.3,2.3,0,0,1,0,.45.83.83,0,0,1,0,.15,2.13,2.13,0,0,1-.08.27l-.08.18c0,.07-.07.14-.11.2a1.27,1.27,0,0,1-.13.19L22,33a1.54,1.54,0,0,1-.17.19l-.1.08a2.47,2.47,0,0,1-1,.5,2.78,2.78,0,0,0,.57.07,2.43,2.43,0,0,0,2.43-2.42V23A2.43,2.43,0,0,0,21.36,20.61Z"/><rect class="cls-8" x="33.5" y="20.61" width="4.85" height="13.2" rx="2.42"/><path class="cls-9" d="M35.93,20.61a2.12,2.12,0,0,0-.57.08,2.35,2.35,0,0,1,1,.49l.1.09a1,1,0,0,1,.18.18c0,.05.08.09.12.15l.12.18A1.28,1.28,0,0,1,37,22a1.42,1.42,0,0,1,.08.18c0,.09.06.18.09.27s0,.1,0,.15a2.3,2.3,0,0,1,0,.45v8.36a2.3,2.3,0,0,1,0,.45c0,.05,0,.1,0,.15a2.14,2.14,0,0,1-.09.27,1.42,1.42,0,0,1-.08.18,1.28,1.28,0,0,1-.11.2l-.12.19-.12.14a1.62,1.62,0,0,1-.18.19l-.1.08a2.49,2.49,0,0,1-1,.5,2.62,2.62,0,0,0,.57.07,2.43,2.43,0,0,0,2.42-2.42V23A2.43,2.43,0,0,0,35.93,20.61Z"/><path class="cls-8" d="M50.5,33.81h0a2.43,2.43,0,0,1-2.43-2.42V23a2.43,2.43,0,0,1,2.43-2.42h0A2.43,2.43,0,0,1,52.92,23v8.36A2.43,2.43,0,0,1,50.5,33.81Z"/><path class="cls-9" d="M50.5,20.61a2.12,2.12,0,0,0-.57.08,2.35,2.35,0,0,1,1,.49l.1.09a1,1,0,0,1,.17.18.93.93,0,0,1,.13.15l.12.18a1.28,1.28,0,0,1,.11.2,1.42,1.42,0,0,1,.08.18c0,.09.06.18.09.27s0,.1,0,.15a3.42,3.42,0,0,1,0,.45v8.36a3.42,3.42,0,0,1,0,.45c0,.05,0,.1,0,.15a2.14,2.14,0,0,1-.09.27,1.42,1.42,0,0,1-.08.18,1.28,1.28,0,0,1-.11.2l-.12.19a.86.86,0,0,1-.13.14,1.54,1.54,0,0,1-.17.19l-.1.08a2.49,2.49,0,0,1-1,.5,2.62,2.62,0,0,0,.57.07,2.43,2.43,0,0,0,2.42-2.42V23A2.43,2.43,0,0,0,50.5,20.61Z"/><path class="cls-8" d="M65.06,33.81h0a2.43,2.43,0,0,1-2.42-2.42V23a2.43,2.43,0,0,1,2.42-2.42h0A2.43,2.43,0,0,1,67.49,23v8.36A2.43,2.43,0,0,1,65.06,33.81Z"/><path class="cls-9" d="M65.06,20.61a2.24,2.24,0,0,0-.57.08,2.29,2.29,0,0,1,1,.49l.11.09a1.49,1.49,0,0,1,.17.18l.12.15.13.18c0,.06.07.13.11.2l.08.18a2.76,2.76,0,0,1,.08.27.83.83,0,0,1,0,.15,2.3,2.3,0,0,1,0,.45v8.36a2.3,2.3,0,0,1,0,.45.83.83,0,0,1,0,.15,2.13,2.13,0,0,1-.08.27l-.08.18c0,.07-.07.14-.11.2a1.27,1.27,0,0,1-.13.19l-.12.14-.17.19-.11.08a2.43,2.43,0,0,1-1,.5,2.78,2.78,0,0,0,.57.07,2.43,2.43,0,0,0,2.43-2.42V23A2.43,2.43,0,0,0,65.06,20.61Z"/><path class="cls-8" d="M79.63,33.81h0a2.43,2.43,0,0,1-2.43-2.42V23a2.43,2.43,0,0,1,2.43-2.42h0A2.43,2.43,0,0,1,82.05,23v8.36A2.43,2.43,0,0,1,79.63,33.81Z"/><path class="cls-9" d="M79.63,20.61a2.12,2.12,0,0,0-.57.08,2.35,2.35,0,0,1,1,.49l.1.09a1,1,0,0,1,.18.18l.12.15.12.18a1.28,1.28,0,0,1,.11.2,1.42,1.42,0,0,1,.08.18c0,.09.06.18.09.27s0,.1,0,.15a2.28,2.28,0,0,1,0,.45v8.36a2.28,2.28,0,0,1,0,.45c0,.05,0,.1,0,.15a2.14,2.14,0,0,1-.09.27,1.42,1.42,0,0,1-.08.18,1.28,1.28,0,0,1-.11.2l-.12.19-.12.14a1.62,1.62,0,0,1-.18.19l-.1.08a2.49,2.49,0,0,1-1,.5,2.62,2.62,0,0,0,.57.07,2.43,2.43,0,0,0,2.42-2.42V23A2.43,2.43,0,0,0,79.63,20.61Z"/><path class="cls-8" d="M94.19,33.81h0a2.43,2.43,0,0,1-2.42-2.42V23a2.43,2.43,0,0,1,2.42-2.42h0A2.43,2.43,0,0,1,96.62,23v8.36A2.43,2.43,0,0,1,94.19,33.81Z"/><path class="cls-9" d="M94.19,20.61a2.1,2.1,0,0,0-.56.08,2.35,2.35,0,0,1,1,.49l.1.09a1,1,0,0,1,.17.18.93.93,0,0,1,.13.15l.12.18a1.28,1.28,0,0,1,.11.2,1.42,1.42,0,0,1,.08.18,2.76,2.76,0,0,1,.08.27.83.83,0,0,1,0,.15,2.3,2.3,0,0,1,0,.45v8.36a2.3,2.3,0,0,1,0,.45.83.83,0,0,1,0,.15,2.13,2.13,0,0,1-.08.27,1.42,1.42,0,0,1-.08.18,1.28,1.28,0,0,1-.11.2l-.12.19a.86.86,0,0,1-.13.14,1.54,1.54,0,0,1-.17.19l-.1.08a2.49,2.49,0,0,1-1,.5,2.6,2.6,0,0,0,.56.07,2.43,2.43,0,0,0,2.43-2.42V23A2.43,2.43,0,0,0,94.19,20.61Z"/><path class="cls-8" d="M108.76,33.81h0a2.43,2.43,0,0,1-2.42-2.42V23a2.43,2.43,0,0,1,2.42-2.42h0A2.44,2.44,0,0,1,111.19,23v8.36A2.44,2.44,0,0,1,108.76,33.81Z"/><path class="cls-9" d="M108.76,20.61a2.18,2.18,0,0,0-.57.08,2.29,2.29,0,0,1,1,.49l.11.09a1.49,1.49,0,0,1,.17.18l.12.15a.94.94,0,0,1,.12.18,1.32,1.32,0,0,1,.12.2,1.42,1.42,0,0,0,.08.18,2.76,2.76,0,0,1,.08.27c0,.05,0,.1,0,.15a2.3,2.3,0,0,1,0,.45v8.36a2.3,2.3,0,0,1,0,.45c0,.05,0,.1,0,.15a2.13,2.13,0,0,1-.08.27,1.42,1.42,0,0,0-.08.18,1.32,1.32,0,0,1-.12.2.76.76,0,0,1-.12.19l-.12.14-.17.19-.11.08a2.43,2.43,0,0,1-1,.5,2.69,2.69,0,0,0,.57.07,2.44,2.44,0,0,0,2.43-2.42V23A2.44,2.44,0,0,0,108.76,20.61Z"/><path class="cls-8" d="M123.33,33.81h0a2.43,2.43,0,0,1-2.43-2.42V23a2.43,2.43,0,0,1,2.43-2.42h0A2.43,2.43,0,0,1,125.75,23v8.36A2.43,2.43,0,0,1,123.33,33.81Z"/><path class="cls-9" d="M123.33,20.61a2.12,2.12,0,0,0-.57.08,2.35,2.35,0,0,1,1,.49l.1.09a1.53,1.53,0,0,1,.18.18c0,.05.08.09.12.15l.12.18a1.28,1.28,0,0,1,.11.2,1.42,1.42,0,0,1,.08.18c0,.09.06.18.09.27s0,.1,0,.15a2.28,2.28,0,0,1,0,.45v8.36a2.28,2.28,0,0,1,0,.45c0,.05,0,.1,0,.15a2.14,2.14,0,0,1-.09.27,1.42,1.42,0,0,1-.08.18,1.28,1.28,0,0,1-.11.2l-.12.19L124,33l-.18.19-.1.08a2.49,2.49,0,0,1-1,.5,2.62,2.62,0,0,0,.57.07,2.43,2.43,0,0,0,2.42-2.42V23A2.43,2.43,0,0,0,123.33,20.61Z"/><path class="cls-8" d="M137.89,33.81h0a2.43,2.43,0,0,1-2.42-2.42V23a2.43,2.43,0,0,1,2.42-2.42h0A2.43,2.43,0,0,1,140.32,23v8.36A2.43,2.43,0,0,1,137.89,33.81Z"/><path class="cls-9" d="M137.89,20.61a2.24,2.24,0,0,0-.57.08,2.33,2.33,0,0,1,1,.49l.1.09a1,1,0,0,1,.17.18.88.88,0,0,1,.12.15l.13.18c0,.06.07.13.11.2a1.42,1.42,0,0,1,.08.18,2.76,2.76,0,0,1,.08.27.83.83,0,0,1,0,.15,2.3,2.3,0,0,1,.05.45v8.36a2.3,2.3,0,0,1-.05.45.83.83,0,0,1,0,.15,2.13,2.13,0,0,1-.08.27,1.42,1.42,0,0,1-.08.18c0,.07-.07.14-.11.2a1.27,1.27,0,0,1-.13.19.81.81,0,0,1-.12.14,1.54,1.54,0,0,1-.17.19l-.1.08a2.47,2.47,0,0,1-1,.5,2.78,2.78,0,0,0,.57.07,2.43,2.43,0,0,0,2.43-2.42V23A2.43,2.43,0,0,0,137.89,20.61Z"/><path class="cls-10" d="M55.45,48.39v1.2c0,1.46-.73,2.29-2.13,2.29s-2.13-.83-2.13-2.29V44.87c0-1.46.73-2.29,2.13-2.29s2.13.83,2.13,2.29v.88H54.1v-1c0-.65-.29-.9-.74-.9s-.74.25-.74.9v4.9c0,.65.28.89.74.89s.74-.24.74-.89V48.39Z"/><path class="cls-10" d="M63.54,51.77H62.09l-.24-1.64H60.1l-.25,1.64H58.54L60,42.69h2.09Zm-3.26-2.88h1.37L61,44.3Z"/><path class="cls-10" d="M66.79,42.69h1.43v7.79h2.35v1.29H66.79Z"/><path class="cls-10" d="M75.22,46.52h2v1.3h-2v2.66h2.47v1.29h-3.9V42.69h3.9V44H75.22Z"/><path class="cls-10" d="M82.44,45.19v6.58H81.15V42.69h1.79l1.47,5.44V42.69h1.27v9.08H84.22Z"/><path class="cls-10" d="M89.31,42.69h2.25c1.43,0,2.13.79,2.13,2.24v4.6c0,1.45-.7,2.24-2.13,2.24H89.31ZM90.73,44v6.49h.81c.45,0,.73-.24.73-.89V44.87c0-.65-.28-.88-.73-.88Z"/><path class="cls-10" d="M101.81,51.77h-1.44l-.25-1.64H98.37l-.25,1.64H96.81l1.45-9.08h2.09Zm-3.26-2.88h1.38l-.69-4.59Z"/><path class="cls-10" d="M108.05,51.77a2.7,2.7,0,0,1-.13-1.11V49.23c0-.84-.28-1.16-.93-1.16h-.5v3.7h-1.42V42.69h2.15c1.48,0,2.12.69,2.12,2.09v.71a1.79,1.79,0,0,1-.94,1.84c.72.3.95,1,.95,1.94v1.4a2.53,2.53,0,0,0,.16,1.1ZM106.49,44v2.79h.56c.54,0,.86-.24.86-1v-.9c0-.65-.22-.93-.73-.93Z"/></g></g></svg>