<svg xmlns="http://www.w3.org/2000/svg" viewBox="0 0 160 160"><defs><style>.cls-1{isolation:isolate;}.cls-2{fill:#d9d9d9;}.cls-3{fill:#5a6374;}.cls-4{fill:#648182;}.cls-5{fill:#939292;}.cls-6{opacity:0.2;mix-blend-mode:multiply;}.cls-7{fill:#2e2c26;}.cls-8{fill:#77d2ac;}.cls-8,.cls-9{stroke:#2e2c26;stroke-miterlimit:10;stroke-width:2px;}.cls-9{fill:#62c599;}.cls-10{fill:#ff8b84;}</style></defs><title>무제-2</title><g class="cls-1"><g id="레이어_1" data-name="레이어 1"><polygon class="cls-2" points="116.9 24.59 108.67 2.16 47.54 24.59 116.9 24.59"/><polygon class="cls-3" points="73.92 22.52 74.24 24.59 76.07 24.59 75.8 21.84 73.92 22.52"/><polygon class="cls-3" points="71.66 23.35 69.7 24.07 69.78 24.59 72.4 24.59 71.66 23.35"/><path class="cls-3" d="M79.11,23.08c-.15-.42.1-.93.9-1.22a4,4,0,0,1,1.85-.24L81.73,20a5.14,5.14,0,0,0-2.24.35c-1.93.7-2.7,2.2-2.19,3.59a2.14,2.14,0,0,0,.39.66h6a3.18,3.18,0,0,0-2.59-.9C79.85,23.66,79.3,23.6,79.11,23.08Z"/><polygon class="cls-4" points="87.78 24.59 88.39 24.59 108.09 17.36 106.31 12.52 86.08 19.95 87.78 24.59"/><polygon class="cls-5" points="112.39 19.57 109.31 20.7 98.71 24.59 107.31 24.59 110.33 23.48 113.4 22.35 112.39 19.57"/><path class="cls-6" d="M131.39,33.67c0-.16,0-.33,0-.5H33.17c0,.17,0,.34,0,.5l.19,3.85,97.31,10.84Z"/><rect class="cls-7" x="34.11" y="135.33" width="10.04" height="22.16" rx="2.5"/><rect class="cls-7" x="120.4" y="135.33" width="10.04" height="22.16" rx="2.5"/><path class="cls-8" d="M131.38,33.17H33.17c0,.17,0,.34,0,.5l.19,3.85,5.39,108.39A12.24,12.24,0,0,0,51,158.16h62.57a12.24,12.24,0,0,0,12.25-12.25l4.85-97.55.73-14.69C131.39,33.51,131.39,33.34,131.38,33.17Z"/><path class="cls-7" d="M112.09,97.18c0-.06,0-.11-.08-.16l-.11-.19-7.65-13.25a2,2,0,0,0-1.73-1,2.1,2.1,0,0,0-.94.23L92.75,87.5A2,2,0,0,0,92,90.29c.58,1,1.28,2.21,1.89,3.3l4.38,7.58c-2.15-.1-4.86-.17-8.11-.21l-.37-4.17A2,2,0,0,0,88.08,95l-.32,0a2,2,0,0,0-1.83,1.21l-2.55,6-.12.26-.32.75-2,4.6.11-3.11a2,2,0,0,0-.57-1.47,2,2,0,0,0-1.43-.6H66.5q1.73-2.7,4.23-6.92l3.8,1.76a1.94,1.94,0,0,0,.84.19A2,2,0,0,0,77,94.39L73.09,89.2,72.92,89l-.49-.65L69,83.7a2,2,0,0,0-1.6-.8h-.13l-5.47.34-.58,0-7.27.44a2,2,0,0,0-1.84,1.63,2,2,0,0,0,1.12,2.18l3.55,1.65-3.21,5.55,0,.1c-1.18,2.31-1.37,4.37-.58,6.15l0,.09c.09.18.22.33.32.49a2,2,0,0,0,.14,1.72l6.84,11.84a2,2,0,0,0,.7.72,4.87,4.87,0,0,0,2.07.72h15.7a2,2,0,0,0,2-1.93l.16-4.23,3,4.52.31.48,4,6.08a2,2,0,0,0,1.67.9,1.92,1.92,0,0,0,.66-.12,2,2,0,0,0,1.33-2.06l-.35-3.9H98c2.59-.13,4.48-1,5.62-2.57l.06-.09a5.7,5.7,0,0,0,.3-.54,2,2,0,0,0,1.38-.95l6.84-11.85a2,2,0,0,0,.27-1A5,5,0,0,0,112.09,97.18Z"/><path class="cls-7" d="M63.6,78.36l8.47,5.31a2,2,0,0,0,1.07.3,2.05,2.05,0,0,0,.49-.06,2,2,0,0,0,1.25-1c.54-1,1.27-2.2,1.91-3.28l4.38-7.59c1,1.89,2.27,4.27,3.87,7.12l-3.43,2.42a2,2,0,0,0,1.15,3.63H83l6.43-.77.29,0,.81-.09,5.73-.68a2,2,0,0,0,1.55-1.1l2.45-4.91.26-.52,3.25-6.51a2,2,0,0,0-.48-2.41,2,2,0,0,0-2.46-.12l-3.2,2.25-3.21-5.56a.22.22,0,0,0,0-.08c-1.41-2.18-3.1-3.39-5-3.59H89c-.11,0-.21,0-.32,0a2,2,0,0,0-1.55-.73H73.42a2.1,2.1,0,0,0-1,.25,5.13,5.13,0,0,0-1.66,1.43l-.09.15-.11.18L62.93,75.67A2,2,0,0,0,63.6,78.36Z"/><path class="cls-6" d="M131.39,33.67c0-.16,0-.33,0-.5H33.17c0,.17,0,.34,0,.5l.19,3.85,97.31,10.84Z"/><rect class="cls-9" x="29.24" y="24.34" width="106.07" height="11.37" rx="3.35"/><path class="cls-10" d="M87.67,79.8l-4.91,3.45,6.44-.77.28,0,.82-.1L96,81.67l2.45-4.91.26-.52L102,69.72l-5,3.52-4.3-7.46c-1.15-1.78-2.36-2.55-3.56-2.68-2.11-.1-4.27,1.8-5.79,3.66-.42.53-.8,1.07-1.14,1.58l-.38.58.38.77c.18.37.37.75.58,1.15C84,73.28,85.75,76.41,87.67,79.8Z"/><path class="cls-10" d="M100.65,103.31c-.64,0-1.36-.09-2.14-.12-2.75-.14-6.32-.21-10.21-.25l-.54-6-2.55,6-.11.27-.32.75-2.27,5.3,3,4.58.31.48,4,6.08-.55-6.08h8.61c2.12-.11,3.39-.77,4.1-1.74,1.15-1.78.58-4.6-.27-6.85C101.41,104.83,101,104,100.65,103.31Z"/><path class="cls-10" d="M110.5,99.3a2.87,2.87,0,0,0-.23-1.28l-.1-.18-7.65-13.26-8.83,4.69c.54.92,1.21,2.09,1.91,3.34l4.83,8.37c.18.26.57.88,1,1.73h0l.14.26a20,20,0,0,1,1.12,2.45,10.58,10.58,0,0,1,.91,5.72Z"/><path class="cls-10" d="M82.2,66.55l.4-.51a10.6,10.6,0,0,1,4.49-3.64H73.42a2.88,2.88,0,0,0-1,.83l-.11.18L64.66,76.67,73.13,82c.53-.93,1.21-2.09,1.94-3.32l4.83-8.37c.14-.28.48-.94,1-1.76v0l.16-.25A17.91,17.91,0,0,1,82.2,66.55Z"/><path class="cls-10" d="M60.8,103.34a24.21,24.21,0,0,0,2.64.23c.36-.53.75-1.13,1.18-1.78,1.49-2.32,3.34-5.37,5.31-8.72l5.44,2.52L71.49,90.4l-.17-.23-.49-.66L67.38,84.9l-5.48.33-.58,0-7.27.44,5.54,2.56-4.31,7.45c-1,1.89-1,3.33-.54,4.43C55.71,102,58.43,103,60.8,103.34Z"/><path class="cls-10" d="M75.23,104.56H65.57c-.31,0-1,0-2,0l0,0h-.3a17.94,17.94,0,0,1-2.68-.26,10.56,10.56,0,0,1-5.4-2.06L62,114.11a2.92,2.92,0,0,0,1.22.45H78.73l.35-10C78,104.58,76.67,104.57,75.23,104.56Z"/></g></g></svg>