<svg id="레이어_1" data-name="레이어 1" xmlns="http://www.w3.org/2000/svg" viewBox="0 0 160 160"><defs><style>.cls-1,.cls-3{fill:#fbf5e7;}.cls-2{fill:#2e2c26;}.cls-3,.cls-7{stroke:#2e2c26;stroke-miterlimit:10;stroke-width:2px;}.cls-4{fill:#fee566;}.cls-5{fill:#ff8b84;}.cls-6{fill:#ffdc9c;}.cls-7{fill:none;}</style></defs><title>무제-2</title><path class="cls-1" d="M108.61,148.41l-.58,0-76.67-7a6.25,6.25,0,0,1-5.65-6.79L36.31,19a6.22,6.22,0,0,1,6.21-5.68,5.49,5.49,0,0,1,.58,0l76.67,7a6.26,6.26,0,0,1,5.66,6.8l-10.6,115.54a6.22,6.22,0,0,1-6.22,5.68Z"/><path class="cls-2" d="M42.52,14.33l.49,0,33,3,20,1.83,23.65,2.17a5.26,5.26,0,0,1,4.75,5.71L118.87,87.7l-4.75,51.84-.28,3.1a5.23,5.23,0,0,1-5.23,4.77l-.48,0L92.68,146l-49.14-4.51-12.08-1.1a5.25,5.25,0,0,1-4.75-5.71l3.22-35.19,6.35-69.25,1-11.11a5.23,5.23,0,0,1,5.22-4.77m0-2a7.26,7.26,0,0,0-7.21,6.59L34.29,30,27.94,99.28l-3.23,35.18a7.27,7.27,0,0,0,6.56,7.89l12.09,1.11L92.5,148l15.44,1.41.67,0a7.26,7.26,0,0,0,7.22-6.59l.28-3.09,4.76-51.85,5.55-60.6a7.26,7.26,0,0,0-6.56-7.89L96.21,17.22l-20-1.83-33-3c-.22,0-.44,0-.67,0Z"/><rect class="cls-3" x="29.82" y="15.61" width="91.49" height="130.53" rx="7.25" transform="translate(-22.42 29.41) rotate(-19.24)"/><path class="cls-2" d="M56.54,38.92a13.17,13.17,0,0,0-3.2-1.23,10.22,10.22,0,0,0-3.49-.2,9.7,9.7,0,0,0-6.14,3.18,9.57,9.57,0,0,0-1.79,3A10.86,10.86,0,0,0,41.28,47a13.46,13.46,0,0,0,1.42,6.34,18,18,0,0,0,3.83,5A33.93,33.93,0,0,0,51.33,62c3.31,2.16,6.72,3.94,9.53,6.38q.53.45,1,.93c.32.32.62.65.91,1a9.32,9.32,0,0,1,1.37,2.21,5.68,5.68,0,0,1,.35,1.18,4.26,4.26,0,0,1,0,1.18A4,4,0,0,1,63.61,77,6.74,6.74,0,0,1,59,79c-.22,0-.44,0-.66,0l-.66,0L57,78.8l-.69-.16c-.48-.11-1-.23-1.5-.3a5,5,0,0,0-1.68,0,3.06,3.06,0,0,0-1.62.86,3.13,3.13,0,0,0-.83,1.61,5.3,5.3,0,0,0,.49,3.23,17.69,17.69,0,0,0,1.71,2.48,7.78,7.78,0,0,1,1.34,2.36,5.11,5.11,0,0,1-1.19,4.94,5.23,5.23,0,0,1-5,1.36h0a.31.31,0,0,0-.17.6,5.85,5.85,0,0,0,7.34-7.18,8.62,8.62,0,0,0-1.41-2.73,15.69,15.69,0,0,1-1.51-2.35A4,4,0,0,1,52,81.1a1.92,1.92,0,0,1,.51-.93,1.69,1.69,0,0,1,.93-.44,6.54,6.54,0,0,1,2.55.36l.71.19.78.16.79.09c.26,0,.53,0,.79,0A9.56,9.56,0,0,0,62.16,80a7.3,7.3,0,0,0,2.77-1.76,5.8,5.8,0,0,0,1.49-3.07,6.61,6.61,0,0,0,0-1.72A8,8,0,0,0,66,71.81a13.85,13.85,0,0,0-3.69-5c-3-2.75-6.45-4.7-9.55-6.88a30.47,30.47,0,0,1-4.32-3.53,16.85,16.85,0,0,1-1.75-2,12.18,12.18,0,0,1-1.32-2.24,10.38,10.38,0,0,1-1-4.92,6.71,6.71,0,0,1,1.76-4.25,6.17,6.17,0,0,1,4-1.9,6.53,6.53,0,0,1,2.28.21,9.23,9.23,0,0,1,2.18.93l0,0A1.87,1.87,0,1,0,56.58,39Z"/><path class="cls-4" d="M138.69,141.11a7.84,7.84,0,0,1-5.81-2.58L75.13,74.73,62.8,46.33a2.82,2.82,0,0,1,.22-2.7,2.93,2.93,0,0,1,2.41-1.31,2.78,2.78,0,0,1,1.39.37l27,15.08,57.75,63.8a7.86,7.86,0,0,1-.55,11.08L144,139.08a7.8,7.8,0,0,1-5.26,2Z"/><path class="cls-2" d="M65.43,43.32a2,2,0,0,1,.91.24l5.88,3.29L92.55,58.18l.68.39,57.64,63.67a6.86,6.86,0,0,1-.48,9.67l-7.11,6.43a6.84,6.84,0,0,1-9.66-.48L76,74.18l-.31-.72L66.4,52.11l-2.68-6.18a1.87,1.87,0,0,1,1.71-2.61m0-2a3.88,3.88,0,0,0-3.55,5.41l2.69,6.18,9.26,21.35.32.72.13.3.22.24,57.63,63.68a8.85,8.85,0,0,0,12.5.62l7.1-6.43a8.84,8.84,0,0,0,.62-12.49L94.71,57.23,94.49,57l-.28-.16-.69-.38L73.19,45.1l-5.88-3.28a3.81,3.81,0,0,0-1.88-.5Z"/><path class="cls-5" d="M128,131.64l5.63,6.22a6.84,6.84,0,0,0,9.66.48l7.11-6.43a6.86,6.86,0,0,0,.48-9.67L145.24,116Z"/><path class="cls-6" d="M75.67,73.46c2.35-1.25,4.62,1.87,7.07.07s-.16-5.09,2-7,5,1,7.16-1.3-.85-4.83.64-7.05L72.22,46.85l-5.88-3.29a1.87,1.87,0,0,0-2.62,2.37l2.68,6.18Z"/><polygon class="cls-1" points="122.29 126.84 141.06 109.92 146.65 116.1 127.92 133.05 122.29 126.84"/><path class="cls-2" d="M141,111.33l4.25,4.7L128,131.64l-4.28-4.73L141,111.33m.14-2.82-1.48,1.33-17.28,15.58-1.49,1.35,1.35,1.48,4.28,4.73,1.34,1.49,1.48-1.35,17.25-15.61,1.49-1.34-1.35-1.49L142.47,110l-1.34-1.48Z"/><path class="cls-2" d="M72.63,45.9a1,1,0,0,0-1.29.45l-5-2.79a1.87,1.87,0,0,0-2.62,2.37L66,51.19a1,1,0,0,0-.58,1.24,1,1,0,0,0,.63.65,1.06,1.06,0,0,0,.66,0,10.14,10.14,0,0,0,6.45-5.83A1,1,0,0,0,72.63,45.9Z"/><path class="cls-7" d="M75.67,73.46c2.35-1.25,4.62,1.87,7.07.07s-.16-5.09,2-7,5,1,7.16-1.3-.85-4.83.64-7.05"/></svg>