<svg xmlns="http://www.w3.org/2000/svg" viewBox="0 0 160 160"><defs><style>.cls-1{isolation:isolate;}.cls-2,.cls-5{fill:#fbf5e7;}.cls-3{fill:#2e2c26;}.cls-4{opacity:0.2;mix-blend-mode:multiply;}.cls-11,.cls-5{stroke:#2e2c26;stroke-miterlimit:10;stroke-width:2px;}.cls-6{fill:#fee566;}.cls-7{fill:#ff8b84;}.cls-8{fill:#ffdc9c;}.cls-9{opacity:0.55;}.cls-10{fill:#fff;}.cls-11{fill:none;}</style></defs><title>무제-2</title><g class="cls-1"><g id="레이어_1" data-name="레이어 1"><path class="cls-2" d="M105.71,144.79a4.61,4.61,0,0,1-.52,0L34.8,138.32a5.67,5.67,0,0,1-5.11-6.16L39.41,26.09A5.63,5.63,0,0,1,45,21a4.52,4.52,0,0,1,.52,0L116,27.43a5.66,5.66,0,0,1,5.12,6.15l-9.73,106.07a5.63,5.63,0,0,1-5.63,5.14Z"/><path class="cls-3" d="M45,22a3.1,3.1,0,0,1,.43,0L75.8,24.75l18.34,1.68,21.72,2a4.66,4.66,0,0,1,4.21,5.07L115,89.12l-4.36,47.6-.27,2.84a4.62,4.62,0,0,1-4.63,4.23h-.43l-14.18-1.3L46,138.34l-11.1-1a4.67,4.67,0,0,1-4.21-5.06l3-32.31,5.83-63.57.94-10.2A4.63,4.63,0,0,1,45,22m0-2A6.66,6.66,0,0,0,38.42,26l-.94,10.19L31.65,99.77l-3,32.3a6.65,6.65,0,0,0,6,7.24l11.1,1,45.11,4.14,14.18,1.3c.2,0,.41,0,.61,0a6.66,6.66,0,0,0,6.63-6l.26-2.85L117,89.31l5.1-55.64a6.66,6.66,0,0,0-6-7.24l-21.71-2L76,22.76,45.66,20,45,20Z"/><g class="cls-4"><path d="M31.65,99.77l14.16,40.56,45.11,4.14,21.68-7.57L117,89.31,94,23.52a6.66,6.66,0,0,0-8.48-4.09L37.48,36.19Z"/></g><rect class="cls-5" x="33.38" y="22.95" width="83.99" height="119.83" rx="6.66" transform="translate(-23.09 29.46) rotate(-19.24)"/><g class="cls-4"><path d="M69.46,40.29a2.94,2.94,0,0,1,3.48-.07L99.14,58.3a1.42,1.42,0,0,1,.25.24l53.05,71.18a8.13,8.13,0,0,1-1.66,11.38L142.84,147a8.08,8.08,0,0,1-6,1.53,8.25,8.25,0,0,1-2.37-.72,8.08,8.08,0,0,1-3-2.47L78.4,74.18a1.08,1.08,0,0,1-.16-.3L68.4,43.61A3,3,0,0,1,69.46,40.29Z"/></g><g class="cls-4"><path d="M19,46.11,54.08,146.68a6.66,6.66,0,0,0,8.48,4.1l66.73-23.29a6.66,6.66,0,0,0,4.44-5.65,6.72,6.72,0,0,1-3.07,2.21L63.92,147.33a6.65,6.65,0,0,1-8.47-4.09L20.35,42.67A6.59,6.59,0,0,1,20,39.84,6.63,6.63,0,0,0,19,46.11Z"/></g><path class="cls-3" d="M60.57,52.35a12.1,12.1,0,0,0-2.93-1.13A9.59,9.59,0,0,0,54.43,51,8.88,8.88,0,0,0,48.79,54a8.71,8.71,0,0,0-1.64,2.76,9.88,9.88,0,0,0-.59,3.06,12.47,12.47,0,0,0,1.31,5.83,16.52,16.52,0,0,0,3.51,4.59,31.23,31.23,0,0,0,4.41,3.37c3,2,6.17,3.61,8.75,5.85.32.28.63.57.93.86s.58.6.84.91a8.16,8.16,0,0,1,1.26,2,5.82,5.82,0,0,1,.32,1.08,4.35,4.35,0,0,1,0,1.08,3.69,3.69,0,0,1-.87,1.94,6.19,6.19,0,0,1-4.23,1.79c-.2,0-.41,0-.61,0s-.4,0-.6,0L61,89l-.64-.14A10.69,10.69,0,0,0,59,88.54a4.69,4.69,0,0,0-1.54,0,2.82,2.82,0,0,0-1.49.79,2.89,2.89,0,0,0-.76,1.48,4.8,4.8,0,0,0,.45,3,15.23,15.23,0,0,0,1.57,2.28,7.36,7.36,0,0,1,1.23,2.16,4.68,4.68,0,0,1-1.09,4.54,4.78,4.78,0,0,1-4.6,1.25h0a.29.29,0,0,0-.16.55,5.46,5.46,0,0,0,5.29-1.26A5.54,5.54,0,0,0,59.36,98a7.87,7.87,0,0,0-1.3-2.51,15,15,0,0,1-1.39-2.15,3.74,3.74,0,0,1-.28-2.24,1.76,1.76,0,0,1,.46-.85,1.53,1.53,0,0,1,.85-.4,6,6,0,0,1,2.35.33l.65.17c.24.05.48.11.72.15s.48.07.72.08.49,0,.73,0a8.51,8.51,0,0,0,2.86-.52,6.68,6.68,0,0,0,2.54-1.62,5.32,5.32,0,0,0,1.37-2.82,6,6,0,0,0,0-1.58,7.32,7.32,0,0,0-.39-1.48,12.51,12.51,0,0,0-3.39-4.62c-2.74-2.53-5.92-4.32-8.76-6.31a29.37,29.37,0,0,1-4-3.24,16.68,16.68,0,0,1-1.61-1.88,11.39,11.39,0,0,1-1.22-2.06,9.68,9.68,0,0,1-.87-4.52A6.18,6.18,0,0,1,51.07,56a5.7,5.7,0,0,1,3.69-1.74,6.19,6.19,0,0,1,2.09.19,8.82,8.82,0,0,1,2,.86l0,0a1.71,1.71,0,0,0,1.71-3Z"/><path class="cls-6" d="M141.48,146.07a8.17,8.17,0,0,1-6.48-3.25L81.84,71.51,72,41.08a2.89,2.89,0,0,1,.4-2.61,3,3,0,0,1,2.39-1.23,2.87,2.87,0,0,1,1.66.53l26.33,18.17,53.15,71.31a8.06,8.06,0,0,1-1.64,11.29l-7.94,5.92a8,8,0,0,1-4.82,1.61Z"/><path class="cls-3" d="M74.74,38.24a1.93,1.93,0,0,1,1.09.35l5.73,4,19.8,13.66.67.46,53.05,71.17a7.07,7.07,0,0,1-1.44,9.9l-7.94,5.92a7.06,7.06,0,0,1-9.9-1.44L82.74,71l-.25-.77L75.05,47.39,72.9,40.77a1.93,1.93,0,0,1,1.84-2.53m0-2a4,4,0,0,0-3.2,1.64A3.91,3.91,0,0,0,71,41.39L73.15,48l7.44,22.88.25.77.1.32.2.26,53.06,71.17a9.05,9.05,0,0,0,12.69,1.86l7.94-5.92a9.08,9.08,0,0,0,1.86-12.7L103.63,55.47l-.2-.26-.26-.19-.67-.46L82.7,40.9l-5.74-4a3.94,3.94,0,0,0-2.22-.7Z"/><path class="cls-7" d="M130.62,135.27l5.18,6.95a7.07,7.07,0,0,0,9.9,1.44l7.94-5.92a7.07,7.07,0,0,0,1.44-9.9l-5.18-6.94Z"/><path class="cls-8" d="M82.49,70.27c2.55-1.06,4.58,2.38,7.27.76s.34-5.24,2.76-7,5,1.48,7.5-.64-.4-5,1.34-7.18L81.56,42.55l-5.73-4a1.93,1.93,0,0,0-2.93,2.18l2.15,6.62Z"/><polygon class="cls-2" points="125.28 129.78 146.2 114.25 151.3 121.1 130.42 136.67 125.28 129.78"/><path class="cls-3" d="M146,115.65l3.91,5.25-19.28,14.37L126.68,130,146,115.65m.41-2.8L144.8,114l-19.31,14.34-1.61,1.19,1.2,1.61,3.94,5.29,1.19,1.6,1.61-1.2L151.1,122.5l1.6-1.2-1.19-1.6-3.92-5.25-1.19-1.6Z"/><g class="cls-4"><path d="M82.74,71l53.06,71.18a7.07,7.07,0,0,0,9.9,1.44l5.1-3.8a7.07,7.07,0,0,1-9.9-1.45L88.33,67.89a4.78,4.78,0,0,1-.73-1.42h0L73.14,39.09a1.88,1.88,0,0,0-.24,1.68l2.15,6.62,7.44,22.88Z"/></g><g class="cls-9"><path class="cls-10" d="M72.81,40a1.79,1.79,0,0,1,.75.31l5.73,4L99.09,57.9l.67.46,53.05,71.18a7.06,7.06,0,0,1-1.44,9.89l2.27-1.69a7.07,7.07,0,0,0,1.44-9.9L102,56.67l-.67-.46L81.56,42.55l-5.73-4A1.94,1.94,0,0,0,72.81,40Z"/></g><path class="cls-3" d="M82.07,41.62A1,1,0,0,0,80.7,42l-4.87-3.36a1.93,1.93,0,0,0-2.93,2.18l1.83,5.63a1.05,1.05,0,0,0,.55,2,10.46,10.46,0,0,0,7.21-5.37A1.06,1.06,0,0,0,82.07,41.62Z"/><path class="cls-11" d="M82.49,70.27c2.55-1.06,4.58,2.38,7.27.76s.34-5.24,2.76-7,5,1.48,7.5-.64-.4-5,1.34-7.18"/></g></g></svg>