<svg xmlns="http://www.w3.org/2000/svg" viewBox="0 0 160 160"><defs><style>.cls-1{isolation:isolate;}.cls-2{opacity:0.2;mix-blend-mode:multiply;}.cls-3{fill:#2e2c26;}.cls-4,.cls-5{fill:#77d2ac;}.cls-4,.cls-7{stroke:#2e2c26;stroke-miterlimit:10;stroke-width:2px;}.cls-6{fill:#fbf5e7;}.cls-7{fill:none;}.cls-8{fill:#ff8b84;}</style></defs><title>무제-2</title><g class="cls-1"><g id="레이어_1" data-name="레이어 1"><polygon class="cls-2" points="149.89 133.16 72.84 143.16 72.84 56.81 149.89 56.81 149.89 133.16"/><polygon class="cls-3" points="5.92 60.69 86.62 60.69 121.05 21.94 40.35 21.94 5.92 60.69"/><polygon class="cls-4" points="43.95 25.59 15.05 56.81 15.05 133.16 72.84 143.16 72.84 56.81 43.95 25.59"/><polygon class="cls-5" points="149.89 133.16 72.84 143.16 72.84 56.81 149.89 56.81 149.89 133.16"/><rect class="cls-6" x="28.56" y="69.32" width="4.87" height="11.96"/><rect class="cls-6" x="54.9" y="69.32" width="4.87" height="11.96"/><rect class="cls-6" x="28.56" y="91.02" width="4.87" height="11.96"/><rect class="cls-6" x="54.9" y="91.02" width="4.87" height="11.96"/><rect class="cls-6" x="83.91" y="69.32" width="4.87" height="11.96"/><rect class="cls-6" x="110.26" y="69.32" width="4.87" height="11.96"/><rect class="cls-6" x="83.91" y="91.02" width="4.87" height="11.96"/><rect class="cls-6" x="110.26" y="91.02" width="4.87" height="11.96"/><rect class="cls-6" x="136.6" y="69.32" width="4.87" height="11.96"/><rect class="cls-6" x="136.6" y="91.02" width="4.87" height="11.96"/><path class="cls-3" d="M50.92,139.16l-14-2V121.68a7,7,0,0,1,7-7h0a7,7,0,0,1,7,7Z"/><polygon class="cls-7" points="149.89 133.16 72.84 143.16 72.84 59.66 149.89 59.66 149.89 133.16"/><polygon class="cls-8" points="74.45 59.69 41.8 22.94 119.82 22.94 152.47 59.69 74.45 59.69"/><path class="cls-3" d="M119.38,23.94l30.87,34.75H74.9L44,23.94h75.36m.89-2H39.57L74,60.69h80.7L120.27,21.94Z"/></g></g></svg>