<svg id="레이어_1" data-name="레이어 1" xmlns="http://www.w3.org/2000/svg" viewBox="0 0 160 160"><defs><style>.cls-1{fill:#2e2c26;}.cls-2{fill:#77d2ac;stroke-width:3px;}.cls-2,.cls-3,.cls-4{stroke:#2e2c26;}.cls-2,.cls-4{stroke-miterlimit:10;}.cls-3{fill:#ff8b84;stroke-linecap:round;stroke-linejoin:round;}.cls-3,.cls-4{stroke-width:2px;}.cls-4{fill:#fee566;}</style></defs><title>무제-2</title><rect class="cls-1" x="26.61" y="23.44" width="85.9" height="113.81" rx="8.34"/><path class="cls-2" d="M127.22,57.39a3.8,3.8,0,0,0-6.49,2.69v9.86H95.33A10.41,10.41,0,0,0,84.92,80.35h0a10.41,10.41,0,0,0,10.41,10.4h25.4v9.86a3.8,3.8,0,0,0,6.49,2.69l23-23Z"/><path class="cls-3" d="M92.23,144.9,32.86,138a7.08,7.08,0,0,1-6.25-7V29.74a7.08,7.08,0,0,1,6.25-7l59.37-6.92a4.86,4.86,0,0,1,5.42,4.83V140.07A4.86,4.86,0,0,1,92.23,144.9Z"/><ellipse class="cls-4" cx="72.75" cy="79.78" rx="4.5" ry="7.88"/></svg>