<svg xmlns="http://www.w3.org/2000/svg" xmlns:xlink="http://www.w3.org/1999/xlink" viewBox="0 0 160 160"><defs><style>.cls-1{isolation:isolate;}.cls-2{opacity:0.3;mix-blend-mode:multiply;}.cls-3{opacity:0;fill:url(#linear-gradient);}.cls-4{opacity:0.04;fill:url(#무제_그라디언트_78);}.cls-5{opacity:0.08;fill:url(#무제_그라디언트_77);}.cls-6{opacity:0.12;fill:url(#무제_그라디언트_76);}.cls-7{opacity:0.15;fill:url(#무제_그라디언트_75);}.cls-8{opacity:0.19;fill:url(#무제_그라디언트_74);}.cls-9{opacity:0.23;fill:url(#무제_그라디언트_73);}.cls-10{opacity:0.27;fill:url(#무제_그라디언트_72);}.cls-11{opacity:0.31;fill:url(#무제_그라디언트_71);}.cls-12{opacity:0.35;fill:url(#무제_그라디언트_70);}.cls-13{opacity:0.38;fill:url(#무제_그라디언트_69);}.cls-14{opacity:0.42;fill:url(#무제_그라디언트_68);}.cls-15{opacity:0.46;fill:url(#무제_그라디언트_67);}.cls-16{opacity:0.5;fill:url(#무제_그라디언트_66);}.cls-17{opacity:0.54;fill:url(#무제_그라디언트_65);}.cls-18{opacity:0.58;fill:url(#무제_그라디언트_64);}.cls-19{opacity:0.62;fill:url(#무제_그라디언트_63);}.cls-20{opacity:0.65;fill:url(#무제_그라디언트_62);}.cls-21{opacity:0.69;fill:url(#무제_그라디언트_61);}.cls-22{opacity:0.73;fill:url(#무제_그라디언트_60);}.cls-23{opacity:0.77;fill:url(#무제_그라디언트_59);}.cls-24{opacity:0.81;fill:url(#무제_그라디언트_58);}.cls-25{opacity:0.85;fill:url(#무제_그라디언트_57);}.cls-26{opacity:0.88;fill:url(#무제_그라디언트_56);}.cls-27{opacity:0.92;fill:url(#무제_그라디언트_55);}.cls-28{opacity:0.96;fill:url(#무제_그라디언트_54);}.cls-29{fill:#5d5d5d;}.cls-30{fill:#fff;}.cls-31{fill:#2e2c26;}.cls-32{fill:#ffcc01;}.cls-33{fill:#898989;}</style><linearGradient id="linear-gradient" x1="19.78" y1="86.37" x2="140.22" y2="86.37" gradientUnits="userSpaceOnUse"><stop offset="0" stop-color="#eee"/><stop offset="0.42" stop-color="#fff"/><stop offset="0.97" stop-color="#f6f6f6"/></linearGradient><linearGradient id="무제_그라디언트_78" x1="20.01" y1="86.21" x2="140.14" y2="86.21" gradientUnits="userSpaceOnUse"><stop offset="0" stop-color="#e8e8e8"/><stop offset="0.42" stop-color="#f9f9f9"/><stop offset="0.97" stop-color="#f0f0f0"/></linearGradient><linearGradient id="무제_그라디언트_77" x1="20.23" y1="86.06" x2="140.06" y2="86.06" gradientUnits="userSpaceOnUse"><stop offset="0" stop-color="#e3e3e3"/><stop offset="0.42" stop-color="#f3f3f3"/><stop offset="0.97" stop-color="#eaeaea"/></linearGradient><linearGradient id="무제_그라디언트_76" x1="20.46" y1="85.9" x2="139.99" y2="85.9" gradientUnits="userSpaceOnUse"><stop offset="0" stop-color="#ddd"/><stop offset="0.42" stop-color="#ececec"/><stop offset="0.97" stop-color="#e4e4e4"/></linearGradient><linearGradient id="무제_그라디언트_75" x1="20.68" y1="85.74" x2="139.91" y2="85.74" gradientUnits="userSpaceOnUse"><stop offset="0" stop-color="#d8d8d8"/><stop offset="0.42" stop-color="#e6e6e6"/><stop offset="0.97" stop-color="#dedede"/></linearGradient><linearGradient id="무제_그라디언트_74" x1="20.91" y1="85.58" x2="139.83" y2="85.58" gradientUnits="userSpaceOnUse"><stop offset="0" stop-color="#d2d2d2"/><stop offset="0.42" stop-color="#e0e0e0"/><stop offset="0.97" stop-color="#d9d9d9"/></linearGradient><linearGradient id="무제_그라디언트_73" x1="21.14" y1="85.43" x2="139.75" y2="85.43" gradientUnits="userSpaceOnUse"><stop offset="0" stop-color="#cdcdcd"/><stop offset="0.42" stop-color="#dadada"/><stop offset="0.97" stop-color="#d3d3d3"/></linearGradient><linearGradient id="무제_그라디언트_72" x1="21.36" y1="85.27" x2="139.67" y2="85.27" gradientUnits="userSpaceOnUse"><stop offset="0" stop-color="#c7c7c7"/><stop offset="0.42" stop-color="#d3d3d3"/><stop offset="0.97" stop-color="#cdcdcd"/></linearGradient><linearGradient id="무제_그라디언트_71" x1="21.59" y1="85.11" x2="139.6" y2="85.11" gradientUnits="userSpaceOnUse"><stop offset="0" stop-color="#c1c1c1"/><stop offset="0.42" stop-color="#cdcdcd"/><stop offset="0.97" stop-color="#c7c7c7"/></linearGradient><linearGradient id="무제_그라디언트_70" x1="21.82" y1="84.95" x2="139.52" y2="84.95" gradientUnits="userSpaceOnUse"><stop offset="0" stop-color="#bcbcbc"/><stop offset="0.42" stop-color="#c7c7c7"/><stop offset="0.97" stop-color="#c1c1c1"/></linearGradient><linearGradient id="무제_그라디언트_69" x1="22.04" y1="84.8" x2="139.44" y2="84.8" gradientUnits="userSpaceOnUse"><stop offset="0" stop-color="#b6b6b6"/><stop offset="0.42" stop-color="#c1c1c1"/><stop offset="0.97" stop-color="#bbb"/></linearGradient><linearGradient id="무제_그라디언트_68" x1="22.27" y1="84.64" x2="139.36" y2="84.64" gradientUnits="userSpaceOnUse"><stop offset="0" stop-color="#b1b1b1"/><stop offset="0.42" stop-color="#bababa"/><stop offset="0.97" stop-color="#b5b5b5"/></linearGradient><linearGradient id="무제_그라디언트_67" x1="22.49" y1="84.48" x2="139.28" y2="84.48" gradientUnits="userSpaceOnUse"><stop offset="0" stop-color="#ababab"/><stop offset="0.42" stop-color="#b4b4b4"/><stop offset="0.97" stop-color="#afafaf"/></linearGradient><linearGradient id="무제_그라디언트_66" x1="22.72" y1="84.33" x2="139.21" y2="84.33" gradientUnits="userSpaceOnUse"><stop offset="0" stop-color="#a6a6a6"/><stop offset="0.42" stop-color="#aeaeae"/><stop offset="0.97" stop-color="#aaa"/></linearGradient><linearGradient id="무제_그라디언트_65" x1="22.95" y1="84.17" x2="139.13" y2="84.17" gradientUnits="userSpaceOnUse"><stop offset="0" stop-color="#a0a0a0"/><stop offset="0.42" stop-color="#a8a8a8"/><stop offset="0.97" stop-color="#a4a4a4"/></linearGradient><linearGradient id="무제_그라디언트_64" x1="23.17" y1="84.01" x2="139.05" y2="84.01" gradientUnits="userSpaceOnUse"><stop offset="0" stop-color="#9a9a9a"/><stop offset="0.42" stop-color="#a2a2a2"/><stop offset="0.97" stop-color="#9e9e9e"/></linearGradient><linearGradient id="무제_그라디언트_63" x1="23.4" y1="83.85" x2="138.97" y2="83.85" gradientUnits="userSpaceOnUse"><stop offset="0" stop-color="#959595"/><stop offset="0.42" stop-color="#9b9b9b"/><stop offset="0.97" stop-color="#989898"/></linearGradient><linearGradient id="무제_그라디언트_62" x1="23.62" y1="83.7" x2="138.9" y2="83.7" gradientUnits="userSpaceOnUse"><stop offset="0" stop-color="#8f8f8f"/><stop offset="0.42" stop-color="#959595"/><stop offset="0.97" stop-color="#929292"/></linearGradient><linearGradient id="무제_그라디언트_61" x1="23.85" y1="83.54" x2="138.82" y2="83.54" gradientUnits="userSpaceOnUse"><stop offset="0" stop-color="#8a8a8a"/><stop offset="0.42" stop-color="#8f8f8f"/><stop offset="0.97" stop-color="#8c8c8c"/></linearGradient><linearGradient id="무제_그라디언트_60" x1="24.08" y1="83.38" x2="138.74" y2="83.38" gradientUnits="userSpaceOnUse"><stop offset="0" stop-color="#848484"/><stop offset="0.42" stop-color="#898989"/><stop offset="0.97" stop-color="#868686"/></linearGradient><linearGradient id="무제_그라디언트_59" x1="24.3" y1="83.22" x2="138.66" y2="83.22" gradientUnits="userSpaceOnUse"><stop offset="0" stop-color="#7e7e7e"/><stop offset="0.42" stop-color="#828282"/><stop offset="0.97" stop-color="gray"/></linearGradient><linearGradient id="무제_그라디언트_58" x1="24.53" y1="83.07" x2="138.58" y2="83.07" gradientUnits="userSpaceOnUse"><stop offset="0" stop-color="#797979"/><stop offset="0.42" stop-color="#7c7c7c"/><stop offset="0.97" stop-color="#7a7a7a"/></linearGradient><linearGradient id="무제_그라디언트_57" x1="24.75" y1="82.91" x2="138.51" y2="82.91" gradientUnits="userSpaceOnUse"><stop offset="0" stop-color="#737373"/><stop offset="0.42" stop-color="#767676"/><stop offset="0.97" stop-color="#757575"/></linearGradient><linearGradient id="무제_그라디언트_56" x1="24.98" y1="82.75" x2="138.43" y2="82.75" gradientUnits="userSpaceOnUse"><stop offset="0" stop-color="#6e6e6e"/><stop offset="0.42" stop-color="#707070"/><stop offset="0.97" stop-color="#6f6f6f"/></linearGradient><linearGradient id="무제_그라디언트_55" x1="25.21" y1="82.59" x2="138.35" y2="82.59" gradientUnits="userSpaceOnUse"><stop offset="0" stop-color="#686868"/><stop offset="0.42" stop-color="#696969"/><stop offset="0.97" stop-color="#696969"/></linearGradient><linearGradient id="무제_그라디언트_54" x1="25.43" y1="82.44" x2="138.27" y2="82.44" gradientUnits="userSpaceOnUse"><stop offset="0" stop-color="#636363"/><stop offset="0.42" stop-color="#636363"/><stop offset="0.97" stop-color="#636363"/></linearGradient></defs><title>무제-2</title><g class="cls-1"><g id="레이어_1" data-name="레이어 1"><g class="cls-2"><polygon class="cls-3" points="131.39 21.58 131.39 27.42 133.93 27.42 133.93 33.99 127.45 33.99 127.45 27.42 130 27.42 130 21.58 120.06 21.58 120.06 27.42 122.6 27.42 122.6 33.99 116.13 33.99 116.13 27.42 118.67 27.42 118.67 21.58 108.74 21.58 108.74 27.42 111.28 27.42 111.28 33.99 104.81 33.99 104.81 27.42 107.34 27.42 107.34 21.58 97.41 21.58 97.41 27.42 99.95 27.42 99.95 33.99 93.48 33.99 93.48 27.42 96.02 27.42 96.02 21.58 86.09 21.58 86.09 27.42 88.63 27.42 88.63 33.99 82.16 33.99 82.16 27.42 84.69 27.42 84.69 21.58 74.76 21.58 74.76 27.42 77.3 27.42 77.3 33.99 70.83 33.99 70.83 27.42 73.37 27.42 73.37 21.58 63.44 21.58 63.44 27.42 65.98 27.42 65.98 33.99 59.51 33.99 59.51 27.42 62.05 27.42 62.05 21.58 52.11 21.58 52.11 27.42 54.65 27.42 54.65 33.99 48.18 33.99 48.18 27.42 50.72 27.42 50.72 21.58 40.79 21.58 40.79 27.42 43.33 27.42 43.33 33.99 36.86 33.99 36.86 27.42 39.4 27.42 39.4 21.58 29.46 21.58 29.46 27.42 32 27.42 32 33.99 25.53 33.99 25.53 27.42 28.07 27.42 28.07 21.58 19.78 21.58 19.78 151.16 140.22 151.16 140.22 21.58 131.39 21.58"/><polygon class="cls-4" points="131.33 21.58 131.33 27.41 133.87 27.41 133.87 33.96 127.41 33.96 127.41 27.41 129.94 27.41 129.94 21.58 120.04 21.58 120.04 27.41 122.57 27.41 122.57 33.96 116.11 33.96 116.11 27.41 118.65 27.41 118.65 21.58 108.74 21.58 108.74 27.41 111.27 27.41 111.27 33.96 104.82 33.96 104.82 27.41 107.35 27.41 107.35 21.58 97.44 21.58 97.44 27.41 99.98 27.41 99.98 33.96 93.52 33.96 93.52 27.41 96.05 27.41 96.05 21.58 86.15 21.58 86.15 27.41 88.68 27.41 88.68 33.96 82.23 33.96 82.23 27.41 84.76 27.41 84.76 21.58 74.85 21.58 74.85 27.41 77.38 27.41 77.38 33.96 70.93 33.96 70.93 27.41 73.46 27.41 73.46 21.58 63.55 21.58 63.55 27.41 66.09 27.41 66.09 33.96 59.63 33.96 59.63 27.41 62.17 27.41 62.17 21.58 52.26 21.58 52.26 27.41 54.79 27.41 54.79 33.96 48.34 33.96 48.34 27.41 50.87 27.41 50.87 21.58 40.96 21.58 40.96 27.41 43.49 27.41 43.49 33.96 37.04 33.96 37.04 27.41 39.57 27.41 39.57 21.58 29.66 21.58 29.66 27.41 32.2 27.41 32.2 33.96 25.74 33.96 25.74 27.41 28.28 27.41 28.28 21.58 20.01 21.58 20.01 150.84 140.14 150.84 140.14 21.58 131.33 21.58"/><polygon class="cls-5" points="131.28 21.58 131.28 27.39 133.8 27.39 133.8 33.93 127.36 33.93 127.36 27.39 129.89 27.39 129.89 21.58 120.01 21.58 120.01 27.39 122.54 27.39 122.54 33.93 116.1 33.93 116.1 27.39 118.62 27.39 118.62 21.58 108.74 21.58 108.74 27.39 111.27 27.39 111.27 33.93 104.83 33.93 104.83 27.39 107.36 27.39 107.36 21.58 97.47 21.58 97.47 27.39 100 27.39 100 33.93 93.56 33.93 93.56 27.39 96.09 27.39 96.09 21.58 86.21 21.58 86.21 27.39 88.73 27.39 88.73 33.93 82.29 33.93 82.29 27.39 84.82 27.39 84.82 21.58 74.94 21.58 74.94 27.39 77.47 27.39 77.47 33.93 71.03 33.93 71.03 27.39 73.55 27.39 73.55 21.58 63.67 21.58 63.67 27.39 66.2 27.39 66.2 33.93 59.76 33.93 59.76 27.39 62.28 27.39 62.28 21.58 52.4 21.58 52.4 27.39 54.93 27.39 54.93 33.93 48.49 33.93 48.49 27.39 51.02 27.39 51.02 21.58 41.14 21.58 41.14 27.39 43.66 27.39 43.66 33.93 37.22 33.93 37.22 27.39 39.75 27.39 39.75 21.58 29.87 21.58 29.87 27.39 32.39 27.39 32.39 33.93 25.95 33.93 25.95 27.39 28.48 27.39 28.48 21.58 20.23 21.58 20.23 150.53 140.06 150.53 140.06 21.58 131.28 21.58"/><polygon class="cls-6" points="131.22 21.58 131.22 27.38 133.74 27.38 133.74 33.9 127.32 33.9 127.32 27.38 129.84 27.38 129.84 21.58 119.98 21.58 119.98 27.38 122.5 27.38 122.5 33.9 116.08 33.9 116.08 27.38 118.6 27.38 118.6 21.58 108.74 21.58 108.74 27.38 111.26 27.38 111.26 33.9 104.84 33.9 104.84 27.38 107.36 27.38 107.36 21.58 97.5 21.58 97.5 27.38 100.02 27.38 100.02 33.9 93.6 33.9 93.6 27.38 96.12 27.38 96.12 21.58 86.27 21.58 86.27 27.38 88.79 27.38 88.79 33.9 82.36 33.9 82.36 27.38 84.88 27.38 84.88 21.58 75.03 21.58 75.03 27.38 77.55 27.38 77.55 33.9 71.12 33.9 71.12 27.38 73.64 27.38 73.64 21.58 63.79 21.58 63.79 27.38 66.31 27.38 66.31 33.9 59.88 33.9 59.88 27.38 62.41 27.38 62.41 21.58 52.55 21.58 52.55 27.38 55.07 27.38 55.07 33.9 48.65 33.9 48.65 27.38 51.16 27.38 51.16 21.58 41.31 21.58 41.31 27.38 43.83 27.38 43.83 33.9 37.41 33.9 37.41 27.38 39.93 27.38 39.93 21.58 30.07 21.58 30.07 27.38 32.59 27.38 32.59 33.9 26.17 33.9 26.17 27.38 28.69 27.38 28.69 21.58 20.46 21.58 20.46 150.22 139.99 150.22 139.99 21.58 131.22 21.58"/><polygon class="cls-7" points="131.17 21.58 131.17 27.36 133.68 27.36 133.68 33.87 127.27 33.87 127.27 27.36 129.79 27.36 129.79 21.58 119.95 21.58 119.95 27.36 122.47 27.36 122.47 33.87 116.06 33.87 116.06 27.36 118.58 27.36 118.58 21.58 108.75 21.58 108.75 27.36 111.26 27.36 111.26 33.87 104.85 33.87 104.85 27.36 107.36 27.36 107.36 21.58 97.53 21.58 97.53 27.36 100.05 27.36 100.05 33.87 93.64 33.87 93.64 27.36 96.16 27.36 96.16 21.58 86.32 21.58 86.32 27.36 88.84 27.36 88.84 33.87 82.43 33.87 82.43 27.36 84.94 27.36 84.94 21.58 75.11 21.58 75.11 27.36 77.63 27.36 77.63 33.87 71.22 33.87 71.22 27.36 73.73 27.36 73.73 21.58 63.9 21.58 63.9 27.36 66.42 27.36 66.42 33.87 60.01 33.87 60.01 27.36 62.52 27.36 62.52 21.58 52.69 21.58 52.69 27.36 55.2 27.36 55.2 33.87 48.8 33.87 48.8 27.36 51.31 27.36 51.31 21.58 41.48 21.58 41.48 27.36 43.99 27.36 43.99 33.87 37.59 33.87 37.59 27.36 40.1 27.36 40.1 21.58 30.27 21.58 30.27 27.36 32.78 27.36 32.78 33.87 26.38 33.87 26.38 27.36 28.89 27.36 28.89 21.58 20.68 21.58 20.68 149.9 139.91 149.9 139.91 21.58 131.17 21.58"/><polygon class="cls-8" points="131.11 21.58 131.11 27.35 133.62 27.35 133.62 33.84 127.23 33.84 127.23 27.35 129.74 27.35 129.74 21.58 119.93 21.58 119.93 27.35 122.44 27.35 122.44 33.84 116.05 33.84 116.05 27.35 118.55 27.35 118.55 21.58 108.75 21.58 108.75 27.35 111.25 27.35 111.25 33.84 104.86 33.84 104.86 27.35 107.37 27.35 107.37 21.58 97.56 21.58 97.56 27.35 100.07 27.35 100.07 33.84 93.68 33.84 93.68 27.35 96.19 27.35 96.19 21.58 86.38 21.58 86.38 27.35 88.89 27.35 88.89 33.84 82.5 33.84 82.5 27.35 85.01 27.35 85.01 21.58 75.2 21.58 75.2 27.35 77.71 27.35 77.71 33.84 71.32 33.84 71.32 27.35 73.83 27.35 73.83 21.58 64.02 21.58 64.02 27.35 66.53 27.35 66.53 33.84 60.14 33.84 60.14 27.35 62.64 27.35 62.64 21.58 52.84 21.58 52.84 27.35 55.34 27.35 55.34 33.84 48.95 33.84 48.95 27.35 51.46 27.35 51.46 21.58 41.66 21.58 41.66 27.35 44.16 27.35 44.16 33.84 37.77 33.84 37.77 27.35 40.28 27.35 40.28 21.58 30.47 21.58 30.47 27.35 32.98 27.35 32.98 33.84 26.59 33.84 26.59 27.35 29.1 27.35 29.1 21.58 20.91 21.58 20.91 149.59 139.83 149.59 139.83 21.58 131.11 21.58"/><polygon class="cls-9" points="131.06 21.58 131.06 27.34 133.56 27.34 133.56 33.81 127.18 33.81 127.18 27.34 129.68 27.34 129.68 21.58 119.9 21.58 119.9 27.34 122.4 27.34 122.4 33.81 116.03 33.81 116.03 27.34 118.53 27.34 118.53 21.58 108.75 21.58 108.75 27.34 111.25 27.34 111.25 33.81 104.88 33.81 104.88 27.34 107.38 27.34 107.38 21.58 97.59 21.58 97.59 27.34 100.09 27.34 100.09 33.81 93.72 33.81 93.72 27.34 96.22 27.34 96.22 21.58 86.44 21.58 86.44 27.34 88.94 27.34 88.94 33.81 82.57 33.81 82.57 27.34 85.07 27.34 85.07 21.58 75.29 21.58 75.29 27.34 77.79 27.34 77.79 33.81 71.42 33.81 71.42 27.34 73.92 27.34 73.92 21.58 64.14 21.58 64.14 27.34 66.64 27.34 66.64 33.81 60.26 33.81 60.26 27.34 62.76 27.34 62.76 21.58 52.98 21.58 52.98 27.34 55.48 27.34 55.48 33.81 49.11 33.81 49.11 27.34 51.61 27.34 51.61 21.58 41.83 21.58 41.83 27.34 44.33 27.34 44.33 33.81 37.96 33.81 37.96 27.34 40.46 27.34 40.46 21.58 30.67 21.58 30.67 27.34 33.17 27.34 33.17 33.81 26.8 33.81 26.8 27.34 29.3 27.34 29.3 21.58 21.14 21.58 21.14 149.27 139.75 149.27 139.75 21.58 131.06 21.58"/><polygon class="cls-10" points="131 21.58 131 27.32 133.49 27.32 133.49 33.78 127.14 33.78 127.14 27.32 129.63 27.32 129.63 21.58 119.87 21.58 119.87 27.32 122.37 27.32 122.37 33.78 116.01 33.78 116.01 27.32 118.51 27.32 118.51 21.58 108.75 21.58 108.75 27.32 111.24 27.32 111.24 33.78 104.89 33.78 104.89 27.32 107.38 27.32 107.38 21.58 97.63 21.58 97.63 27.32 100.12 27.32 100.12 33.78 93.76 33.78 93.76 27.32 96.26 27.32 96.26 21.58 86.5 21.58 86.5 27.32 89 27.32 89 33.78 82.64 33.78 82.64 27.32 85.13 27.32 85.13 21.58 75.38 21.58 75.38 27.32 77.87 27.32 77.87 33.78 71.51 33.78 71.51 27.32 74.01 27.32 74.01 21.58 64.25 21.58 64.25 27.32 66.75 27.32 66.75 33.78 60.39 33.78 60.39 27.32 62.88 27.32 62.88 21.58 53.13 21.58 53.13 27.32 55.62 27.32 55.62 33.78 49.26 33.78 49.26 27.32 51.76 27.32 51.76 21.58 42 21.58 42 27.32 44.49 27.32 44.49 33.78 38.14 33.78 38.14 27.32 40.63 27.32 40.63 21.58 30.88 21.58 30.88 27.32 33.37 27.32 33.37 33.78 27.01 33.78 27.01 27.32 29.51 27.32 29.51 21.58 21.36 21.58 21.36 148.96 139.67 148.96 139.67 21.58 131 21.58"/><polygon class="cls-11" points="130.94 21.58 130.94 27.31 133.43 27.31 133.43 33.75 127.09 33.75 127.09 27.31 129.58 27.31 129.58 21.58 119.85 21.58 119.85 27.31 122.33 27.31 122.33 33.75 115.99 33.75 115.99 27.31 118.48 27.31 118.48 21.58 108.75 21.58 108.75 27.31 111.24 27.31 111.24 33.75 104.9 33.75 104.9 27.31 107.39 27.31 107.39 21.58 97.66 21.58 97.66 27.31 100.14 27.31 100.14 33.75 93.8 33.75 93.8 27.31 96.29 27.31 96.29 21.58 86.56 21.58 86.56 27.31 89.05 27.31 89.05 33.75 82.71 33.75 82.71 27.31 85.19 27.31 85.19 21.58 75.46 21.58 75.46 27.31 77.95 27.31 77.95 33.75 71.61 33.75 71.61 27.31 74.1 27.31 74.1 21.58 64.37 21.58 64.37 27.31 66.85 27.31 66.85 33.75 60.51 33.75 60.51 27.31 63 27.31 63 21.58 53.27 21.58 53.27 27.31 55.76 27.31 55.76 33.75 49.42 33.75 49.42 27.31 51.91 27.31 51.91 21.58 42.17 21.58 42.17 27.31 44.66 27.31 44.66 33.75 38.32 33.75 38.32 27.31 40.81 27.31 40.81 21.58 31.08 21.58 31.08 27.31 33.56 27.31 33.56 33.75 27.23 33.75 27.23 27.31 29.71 27.31 29.71 21.58 21.59 21.58 21.59 148.64 139.6 148.64 139.6 21.58 130.94 21.58"/><polygon class="cls-12" points="130.89 21.58 130.89 27.29 133.37 27.29 133.37 33.72 127.05 33.72 127.05 27.29 129.53 27.29 129.53 21.58 119.82 21.58 119.82 27.29 122.3 27.29 122.3 33.72 115.98 33.72 115.98 27.29 118.46 27.29 118.46 21.58 108.75 21.58 108.75 27.29 111.23 27.29 111.23 33.72 104.91 33.72 104.91 27.29 107.39 27.29 107.39 21.58 97.69 21.58 97.69 27.29 100.17 27.29 100.17 33.72 93.84 33.72 93.84 27.29 96.32 27.29 96.32 21.58 86.62 21.58 86.62 27.29 89.1 27.29 89.1 33.72 82.78 33.72 82.78 27.29 85.26 27.29 85.26 21.58 75.55 21.58 75.55 27.29 78.03 27.29 78.03 33.72 71.71 33.72 71.71 27.29 74.19 27.29 74.19 21.58 64.48 21.58 64.48 27.29 66.96 27.29 66.96 33.72 60.64 33.72 60.64 27.29 63.12 27.29 63.12 21.58 53.41 21.58 53.41 27.29 55.9 27.29 55.9 33.72 49.57 33.72 49.57 27.29 52.05 27.29 52.05 21.58 42.35 21.58 42.35 27.29 44.83 27.29 44.83 33.72 38.51 33.72 38.51 27.29 40.99 27.29 40.99 21.58 31.28 21.58 31.28 27.29 33.76 27.29 33.76 33.72 27.44 33.72 27.44 27.29 29.92 27.29 29.92 21.58 21.82 21.58 21.82 148.33 139.52 148.33 139.52 21.58 130.89 21.58"/><polygon class="cls-13" points="130.83 21.58 130.83 27.28 133.31 27.28 133.31 33.69 127 33.69 127 27.28 129.47 27.28 129.47 21.58 119.79 21.58 119.79 27.28 122.27 27.28 122.27 33.69 115.96 33.69 115.96 27.28 118.44 27.28 118.44 21.58 108.75 21.58 108.75 27.28 111.23 27.28 111.23 33.69 104.92 33.69 104.92 27.28 107.4 27.28 107.4 21.58 97.72 21.58 97.72 27.28 100.19 27.28 100.19 33.69 93.88 33.69 93.88 27.28 96.36 27.28 96.36 21.58 86.68 21.58 86.68 27.28 89.15 27.28 89.15 33.69 82.84 33.69 82.84 27.28 85.32 27.28 85.32 21.58 75.64 21.58 75.64 27.28 78.11 27.28 78.11 33.69 71.8 33.69 71.8 27.28 74.28 27.28 74.28 21.58 64.6 21.58 64.6 27.28 67.07 27.28 67.07 33.69 60.77 33.69 60.77 27.28 63.24 27.28 63.24 21.58 53.56 21.58 53.56 27.28 56.03 27.28 56.03 33.69 49.73 33.69 49.73 27.28 52.2 27.28 52.2 21.58 42.52 21.58 42.52 27.28 45 27.28 45 33.69 38.69 33.69 38.69 27.28 41.16 27.28 41.16 21.58 31.48 21.58 31.48 27.28 33.96 27.28 33.96 33.69 27.65 33.69 27.65 27.28 30.12 27.28 30.12 21.58 22.04 21.58 22.04 148.01 139.44 148.01 139.44 21.58 130.83 21.58"/><polygon class="cls-14" points="130.78 21.58 130.78 27.27 133.25 27.27 133.25 33.66 126.95 33.66 126.95 27.27 129.42 27.27 129.42 21.58 119.77 21.58 119.77 27.27 122.23 27.27 122.23 33.66 115.94 33.66 115.94 27.27 118.41 27.27 118.41 21.58 108.76 21.58 108.76 27.27 111.22 27.27 111.22 33.66 104.93 33.66 104.93 27.27 107.4 27.27 107.4 21.58 97.75 21.58 97.75 27.27 100.21 27.27 100.21 33.66 93.92 33.66 93.92 27.27 96.39 27.27 96.39 21.58 86.73 21.58 86.73 27.27 89.2 27.27 89.2 33.66 82.91 33.66 82.91 27.27 85.38 27.27 85.38 21.58 75.72 21.58 75.72 27.27 78.19 27.27 78.19 33.66 71.9 33.66 71.9 27.27 74.37 27.27 74.37 21.58 64.72 21.58 64.72 27.27 67.18 27.27 67.18 33.66 60.89 33.66 60.89 27.27 63.36 27.27 63.36 21.58 53.7 21.58 53.7 27.27 56.17 27.27 56.17 33.66 49.88 33.66 49.88 27.27 52.35 27.27 52.35 21.58 42.69 21.58 42.69 27.27 45.16 27.27 45.16 33.66 38.87 33.66 38.87 27.27 41.34 27.27 41.34 21.58 31.68 21.58 31.68 27.27 34.15 27.27 34.15 33.66 27.86 33.66 27.86 27.27 30.33 27.27 30.33 21.58 22.27 21.58 22.27 147.7 139.36 147.7 139.36 21.58 130.78 21.58"/><polygon class="cls-15" points="130.72 21.58 130.72 27.25 133.18 27.25 133.18 33.63 126.91 33.63 126.91 27.25 129.37 27.25 129.37 21.58 119.74 21.58 119.74 27.25 122.2 27.25 122.2 33.63 115.93 33.63 115.93 27.25 118.39 27.25 118.39 21.58 108.76 21.58 108.76 27.25 111.22 27.25 111.22 33.63 104.94 33.63 104.94 27.25 107.41 27.25 107.41 21.58 97.78 21.58 97.78 27.25 100.24 27.25 100.24 33.63 93.96 33.63 93.96 27.25 96.42 27.25 96.42 21.58 86.79 21.58 86.79 27.25 89.26 27.25 89.26 33.63 82.98 33.63 82.98 27.25 85.44 27.25 85.44 21.58 75.81 21.58 75.81 27.25 78.27 27.25 78.27 33.63 72 33.63 72 27.25 74.46 27.25 74.46 21.58 64.83 21.58 64.83 27.25 67.29 27.25 67.29 33.63 61.02 33.63 61.02 27.25 63.48 27.25 63.48 21.58 53.85 21.58 53.85 27.25 56.31 27.25 56.31 33.63 50.03 33.63 50.03 27.25 52.5 27.25 52.5 21.58 42.87 21.58 42.87 27.25 45.33 27.25 45.33 33.63 39.05 33.63 39.05 27.25 41.52 27.25 41.52 21.58 31.88 21.58 31.88 27.25 34.35 27.25 34.35 33.63 28.07 33.63 28.07 27.25 30.53 27.25 30.53 21.58 22.49 21.58 22.49 147.38 139.28 147.38 139.28 21.58 130.72 21.58"/><polygon class="cls-16" points="130.67 21.58 130.67 27.24 133.12 27.24 133.12 33.6 126.86 33.6 126.86 27.24 129.32 27.24 129.32 21.58 119.71 21.58 119.71 27.24 122.17 27.24 122.17 33.6 115.91 33.6 115.91 27.24 118.36 27.24 118.36 21.58 108.76 21.58 108.76 27.24 111.22 27.24 111.22 33.6 104.96 33.6 104.96 27.24 107.41 27.24 107.41 21.58 97.81 21.58 97.81 27.24 100.26 27.24 100.26 33.6 94 33.6 94 27.24 96.46 27.24 96.46 21.58 86.85 21.58 86.85 27.24 89.31 27.24 89.31 33.6 83.05 33.6 83.05 27.24 85.5 27.24 85.5 21.58 75.9 21.58 75.9 27.24 78.36 27.24 78.36 33.6 72.1 33.6 72.1 27.24 74.55 27.24 74.55 21.58 64.95 21.58 64.95 27.24 67.4 27.24 67.4 33.6 61.14 33.6 61.14 27.24 63.6 27.24 63.6 21.58 53.99 21.58 53.99 27.24 56.45 27.24 56.45 33.6 50.19 33.6 50.19 27.24 52.65 27.24 52.65 21.58 43.04 21.58 43.04 27.24 45.5 27.24 45.5 33.6 39.24 33.6 39.24 27.24 41.69 27.24 41.69 21.58 32.09 21.58 32.09 27.24 34.54 27.24 34.54 33.6 28.28 33.6 28.28 27.24 30.74 27.24 30.74 21.58 22.72 21.58 22.72 147.07 139.21 147.07 139.21 21.58 130.67 21.58"/><polygon class="cls-17" points="130.61 21.58 130.61 27.22 133.06 27.22 133.06 33.57 126.82 33.57 126.82 27.22 129.27 27.22 129.27 21.58 119.69 21.58 119.69 27.22 122.14 27.22 122.14 33.57 115.89 33.57 115.89 27.22 118.34 27.22 118.34 21.58 108.76 21.58 108.76 27.22 111.21 27.22 111.21 33.57 104.97 33.57 104.97 27.22 107.42 27.22 107.42 21.58 97.84 21.58 97.84 27.22 100.28 27.22 100.28 33.57 94.04 33.57 94.04 27.22 96.49 27.22 96.49 21.58 86.91 21.58 86.91 27.22 89.36 27.22 89.36 33.57 83.12 33.57 83.12 27.22 85.57 27.22 85.57 21.58 75.99 21.58 75.99 27.22 78.44 27.22 78.44 33.57 72.19 33.57 72.19 27.22 74.64 27.22 74.64 21.58 65.06 21.58 65.06 27.22 67.51 27.22 67.51 33.57 61.27 33.57 61.27 27.22 63.72 27.22 63.72 21.58 54.14 21.58 54.14 27.22 56.59 27.22 56.59 33.57 50.34 33.57 50.34 27.22 52.79 27.22 52.79 21.58 43.21 21.58 43.21 27.22 45.66 27.22 45.66 33.57 39.42 33.57 39.42 27.22 41.87 27.22 41.87 21.58 32.29 21.58 32.29 27.22 34.74 27.22 34.74 33.57 28.49 33.57 28.49 27.22 30.94 27.22 30.94 21.58 22.95 21.58 22.95 146.75 139.13 146.75 139.13 21.58 130.61 21.58"/><polygon class="cls-18" points="130.56 21.58 130.56 27.21 133 27.21 133 33.54 126.77 33.54 126.77 27.21 129.21 27.21 129.21 21.58 119.66 21.58 119.66 27.21 122.1 27.21 122.1 33.54 115.88 33.54 115.88 27.21 118.32 27.21 118.32 21.58 108.76 21.58 108.76 27.21 111.21 27.21 111.21 33.54 104.98 33.54 104.98 27.21 107.42 27.21 107.42 21.58 97.87 21.58 97.87 27.21 100.31 27.21 100.31 33.54 94.08 33.54 94.08 27.21 96.53 27.21 96.53 21.58 86.97 21.58 86.97 27.21 89.41 27.21 89.41 33.54 83.19 33.54 83.19 27.21 85.63 27.21 85.63 21.58 76.07 21.58 76.07 27.21 78.52 27.21 78.52 33.54 72.29 33.54 72.29 27.21 74.73 27.21 74.73 21.58 65.18 21.58 65.18 27.21 67.62 27.21 67.62 33.54 61.4 33.54 61.4 27.21 63.84 27.21 63.84 21.58 54.28 21.58 54.28 27.21 56.72 27.21 56.72 33.54 50.5 33.54 50.5 27.21 52.94 27.21 52.94 21.58 43.38 21.58 43.38 27.21 45.83 27.21 45.83 33.54 39.6 33.54 39.6 27.21 42.05 27.21 42.05 21.58 32.49 21.58 32.49 27.21 34.93 27.21 34.93 33.54 28.71 33.54 28.71 27.21 31.15 27.21 31.15 21.58 23.17 21.58 23.17 146.44 139.05 146.44 139.05 21.58 130.56 21.58"/><polygon class="cls-19" points="130.5 21.58 130.5 27.19 132.94 27.19 132.94 33.51 126.72 33.51 126.72 27.19 129.16 27.19 129.16 21.58 119.63 21.58 119.63 27.19 122.07 27.19 122.07 33.51 115.86 33.51 115.86 27.19 118.3 27.19 118.3 21.58 108.76 21.58 108.76 27.19 111.2 27.19 111.2 33.51 104.99 33.51 104.99 27.19 107.43 27.19 107.43 21.58 97.9 21.58 97.9 27.19 100.33 27.19 100.33 33.51 94.12 33.51 94.12 27.19 96.56 27.19 96.56 21.58 87.03 21.58 87.03 27.19 89.47 27.19 89.47 33.51 83.25 33.51 83.25 27.19 85.69 27.19 85.69 21.58 76.16 21.58 76.16 27.19 78.6 27.19 78.6 33.51 72.39 33.51 72.39 27.19 74.82 27.19 74.82 21.58 65.29 21.58 65.29 27.19 67.73 27.19 67.73 33.51 61.52 33.51 61.52 27.19 63.96 27.19 63.96 21.58 54.43 21.58 54.43 27.19 56.86 27.19 56.86 33.51 50.65 33.51 50.65 27.19 53.09 27.19 53.09 21.58 43.56 21.58 43.56 27.19 46 27.19 46 33.51 39.79 33.51 39.79 27.19 42.22 27.19 42.22 21.58 32.69 21.58 32.69 27.19 35.13 27.19 35.13 33.51 28.92 33.51 28.92 27.19 31.35 27.19 31.35 21.58 23.4 21.58 23.4 146.13 138.97 146.13 138.97 21.58 130.5 21.58"/><polygon class="cls-20" points="130.44 21.58 130.44 27.18 132.87 27.18 132.87 33.48 126.68 33.48 126.68 27.18 129.11 27.18 129.11 21.58 119.6 21.58 119.6 27.18 122.03 27.18 122.03 33.48 115.84 33.48 115.84 27.18 118.27 27.18 118.27 21.58 108.77 21.58 108.77 27.18 111.2 27.18 111.2 33.48 105 33.48 105 27.18 107.43 27.18 107.43 21.58 97.93 21.58 97.93 27.18 100.36 27.18 100.36 33.48 94.16 33.48 94.16 27.18 96.59 27.18 96.59 21.58 87.09 21.58 87.09 27.18 89.52 27.18 89.52 33.48 83.32 33.48 83.32 27.18 85.75 27.18 85.75 21.58 76.25 21.58 76.25 27.18 78.68 27.18 78.68 33.48 72.48 33.48 72.48 27.18 74.92 27.18 74.92 21.58 65.41 21.58 65.41 27.18 67.84 27.18 67.84 33.48 61.65 33.48 61.65 27.18 64.08 27.18 64.08 21.58 54.57 21.58 54.57 27.18 57 27.18 57 33.48 50.81 33.48 50.81 27.18 53.24 27.18 53.24 21.58 43.73 21.58 43.73 27.18 46.16 27.18 46.16 33.48 39.97 33.48 39.97 27.18 42.4 27.18 42.4 21.58 32.89 21.58 32.89 27.18 35.32 27.18 35.32 33.48 29.13 33.48 29.13 27.18 31.56 27.18 31.56 21.58 23.62 21.58 23.62 145.81 138.9 145.81 138.9 21.58 130.44 21.58"/><polygon class="cls-21" points="130.39 21.58 130.39 27.17 132.81 27.17 132.81 33.45 126.63 33.45 126.63 27.17 129.06 27.17 129.06 21.58 119.58 21.58 119.58 27.17 122 27.17 122 33.45 115.82 33.45 115.82 27.17 118.25 27.17 118.25 21.58 108.77 21.58 108.77 27.17 111.19 27.17 111.19 33.45 105.01 33.45 105.01 27.17 107.44 27.17 107.44 21.58 97.96 21.58 97.96 27.17 100.38 27.17 100.38 33.45 94.2 33.45 94.2 27.17 96.63 27.17 96.63 21.58 87.15 21.58 87.15 27.17 89.57 27.17 89.57 33.45 83.39 33.45 83.39 27.17 85.82 27.17 85.82 21.58 76.34 21.58 76.34 27.17 78.76 27.17 78.76 33.45 72.58 33.45 72.58 27.17 75.01 27.17 75.01 21.58 65.53 21.58 65.53 27.17 67.95 27.17 67.95 33.45 61.77 33.45 61.77 27.17 64.19 27.17 64.19 21.58 54.72 21.58 54.72 27.17 57.14 27.17 57.14 33.45 50.96 33.45 50.96 27.17 53.39 27.17 53.39 21.58 43.91 21.58 43.91 27.17 46.33 27.17 46.33 33.45 40.15 33.45 40.15 27.17 42.58 27.17 42.58 21.58 33.09 21.58 33.09 27.17 35.52 27.17 35.52 33.45 29.34 33.45 29.34 27.17 31.76 27.17 31.76 21.58 23.85 21.58 23.85 145.5 138.82 145.5 138.82 21.58 130.39 21.58"/><polygon class="cls-22" points="130.33 21.58 130.33 27.15 132.75 27.15 132.75 33.42 126.59 33.42 126.59 27.15 129.01 27.15 129.01 21.58 119.55 21.58 119.55 27.15 121.97 27.15 121.97 33.42 115.81 33.42 115.81 27.15 118.22 27.15 118.22 21.58 108.77 21.58 108.77 27.15 111.19 27.15 111.19 33.42 105.03 33.42 105.03 27.15 107.44 27.15 107.44 21.58 97.99 21.58 97.99 27.15 100.4 27.15 100.4 33.42 94.24 33.42 94.24 27.15 96.66 27.15 96.66 21.58 87.2 21.58 87.2 27.15 89.62 27.15 89.62 33.42 83.46 33.42 83.46 27.15 85.88 27.15 85.88 21.58 76.42 21.58 76.42 27.15 78.84 27.15 78.84 33.42 72.68 33.42 72.68 27.15 75.1 27.15 75.1 21.58 65.64 21.58 65.64 27.15 68.06 27.15 68.06 33.42 61.9 33.42 61.9 27.15 64.31 27.15 64.31 21.58 54.86 21.58 54.86 27.15 57.28 27.15 57.28 33.42 51.12 33.42 51.12 27.15 53.53 27.15 53.53 21.58 44.08 21.58 44.08 27.15 46.5 27.15 46.5 33.42 40.34 33.42 40.34 27.15 42.75 27.15 42.75 21.58 33.3 21.58 33.3 27.15 35.71 27.15 35.71 33.42 29.55 33.42 29.55 27.15 31.97 27.15 31.97 21.58 24.08 21.58 24.08 145.18 138.74 145.18 138.74 21.58 130.33 21.58"/><polygon class="cls-23" points="130.28 21.58 130.28 27.14 132.69 27.14 132.69 33.39 126.54 33.39 126.54 27.14 128.95 27.14 128.95 21.58 119.52 21.58 119.52 27.14 121.94 27.14 121.94 33.39 115.79 33.39 115.79 27.14 118.2 27.14 118.2 21.58 108.77 21.58 108.77 27.14 111.18 27.14 111.18 33.39 105.04 33.39 105.04 27.14 107.45 27.14 107.45 21.58 98.02 21.58 98.02 27.14 100.43 27.14 100.43 33.39 94.28 33.39 94.28 27.14 96.69 27.14 96.69 21.58 87.26 21.58 87.26 27.14 89.67 27.14 89.67 33.39 83.53 33.39 83.53 27.14 85.94 27.14 85.94 21.58 76.51 21.58 76.51 27.14 78.92 27.14 78.92 33.39 72.78 33.39 72.78 27.14 75.19 27.14 75.19 21.58 65.76 21.58 65.76 27.14 68.17 27.14 68.17 33.39 62.02 33.39 62.02 27.14 64.43 27.14 64.43 21.58 55 21.58 55 27.14 57.41 27.14 57.41 33.39 51.27 33.39 51.27 27.14 53.68 27.14 53.68 21.58 44.25 21.58 44.25 27.14 46.66 27.14 46.66 33.39 40.52 33.39 40.52 27.14 42.93 27.14 42.93 21.58 33.5 21.58 33.5 27.14 35.91 27.14 35.91 33.39 29.76 33.39 29.76 27.14 32.17 27.14 32.17 21.58 24.3 21.58 24.3 144.87 138.66 144.87 138.66 21.58 130.28 21.58"/><polygon class="cls-24" points="130.22 21.58 130.22 27.12 132.63 27.12 132.63 33.36 126.5 33.36 126.5 27.12 128.9 27.12 128.9 21.58 119.5 21.58 119.5 27.12 121.9 27.12 121.9 33.36 115.77 33.36 115.77 27.12 118.18 27.12 118.18 21.58 108.77 21.58 108.77 27.12 111.18 27.12 111.18 33.36 105.05 33.36 105.05 27.12 107.45 27.12 107.45 21.58 98.05 21.58 98.05 27.12 100.45 27.12 100.45 33.36 94.32 33.36 94.32 27.12 96.73 27.12 96.73 21.58 87.32 21.58 87.32 27.12 89.73 27.12 89.73 33.36 83.6 33.36 83.6 27.12 86 27.12 86 21.58 76.6 21.58 76.6 27.12 79 27.12 79 33.36 72.88 33.36 72.88 27.12 75.28 27.12 75.28 21.58 65.87 21.58 65.87 27.12 68.28 27.12 68.28 33.36 62.15 33.36 62.15 27.12 64.55 27.12 64.55 21.58 55.15 21.58 55.15 27.12 57.55 27.12 57.55 33.36 51.42 33.36 51.42 27.12 53.83 27.12 53.83 21.58 44.42 21.58 44.42 27.12 46.83 27.12 46.83 33.36 40.7 33.36 40.7 27.12 43.1 27.12 43.1 21.58 33.7 21.58 33.7 27.12 36.1 27.12 36.1 33.36 29.98 33.36 29.98 27.12 32.38 27.12 32.38 21.58 24.53 21.58 24.53 144.55 138.58 144.55 138.58 21.58 130.22 21.58"/><polygon class="cls-25" points="130.17 21.58 130.17 27.11 132.56 27.11 132.56 33.33 126.45 33.33 126.45 27.11 128.85 27.11 128.85 21.58 119.47 21.58 119.47 27.11 121.87 27.11 121.87 33.33 115.75 33.33 115.75 27.11 118.15 27.11 118.15 21.58 108.77 21.58 108.77 27.11 111.17 27.11 111.17 33.33 105.06 33.33 105.06 27.11 107.46 27.11 107.46 21.58 98.08 21.58 98.08 27.11 100.47 27.11 100.47 33.33 94.36 33.33 94.36 27.11 96.76 27.11 96.76 21.58 87.38 21.58 87.38 27.11 89.78 27.11 89.78 33.33 83.67 33.33 83.67 27.11 86.07 27.11 86.07 21.58 76.69 21.58 76.69 27.11 79.08 27.11 79.08 33.33 72.97 33.33 72.97 27.11 75.37 27.11 75.37 21.58 65.99 21.58 65.99 27.11 68.39 27.11 68.39 33.33 62.28 33.33 62.28 27.11 64.67 27.11 64.67 21.58 55.29 21.58 55.29 27.11 57.69 27.11 57.69 33.33 51.58 33.33 51.58 27.11 53.98 27.11 53.98 21.58 44.6 21.58 44.6 27.11 47 27.11 47 33.33 40.88 33.33 40.88 27.11 43.28 27.11 43.28 21.58 33.9 21.58 33.9 27.11 36.3 27.11 36.3 33.33 30.19 33.33 30.19 27.11 32.59 27.11 32.59 21.58 24.75 21.58 24.75 144.24 138.51 144.24 138.51 21.58 130.17 21.58"/><polygon class="cls-26" points="130.11 21.58 130.11 27.09 132.5 27.09 132.5 33.3 126.41 33.3 126.41 27.09 128.8 27.09 128.8 21.58 119.44 21.58 119.44 27.09 121.83 27.09 121.83 33.3 115.74 33.3 115.74 27.09 118.13 27.09 118.13 21.58 108.78 21.58 108.78 27.09 111.17 27.09 111.17 33.3 105.07 33.3 105.07 27.09 107.46 27.09 107.46 21.58 98.11 21.58 98.11 27.09 100.5 27.09 100.5 33.3 94.4 33.3 94.4 27.09 96.8 27.09 96.8 21.58 87.44 21.58 87.44 27.09 89.83 27.09 89.83 33.3 83.74 33.3 83.74 27.09 86.13 27.09 86.13 21.58 76.77 21.58 76.77 27.09 79.17 27.09 79.17 33.3 73.07 33.3 73.07 27.09 75.46 27.09 75.46 21.58 66.11 21.58 66.11 27.09 68.5 27.09 68.5 33.3 62.4 33.3 62.4 27.09 64.79 27.09 64.79 21.58 55.44 21.58 55.44 27.09 57.83 27.09 57.83 33.3 51.73 33.3 51.73 27.09 54.13 27.09 54.13 21.58 44.77 21.58 44.77 27.09 47.16 27.09 47.16 33.3 41.07 33.3 41.07 27.09 43.46 27.09 43.46 21.58 34.1 21.58 34.1 27.09 36.49 27.09 36.49 33.3 30.4 33.3 30.4 27.09 32.79 27.09 32.79 21.58 24.98 21.58 24.98 143.92 138.43 143.92 138.43 21.58 130.11 21.58"/><polygon class="cls-27" points="130.06 21.58 130.06 27.08 132.44 27.08 132.44 33.27 126.36 33.27 126.36 27.08 128.75 27.08 128.75 21.58 119.42 21.58 119.42 27.08 121.8 27.08 121.8 33.27 115.72 33.27 115.72 27.08 118.11 27.08 118.11 21.58 108.78 21.58 108.78 27.08 111.16 27.08 111.16 33.27 105.08 33.27 105.08 27.08 107.47 27.08 107.47 21.58 98.14 21.58 98.14 27.08 100.52 27.08 100.52 33.27 94.44 33.27 94.44 27.08 96.83 27.08 96.83 21.58 87.5 21.58 87.5 27.08 89.89 27.08 89.89 33.27 83.8 33.27 83.8 27.08 86.19 27.08 86.19 21.58 76.86 21.58 76.86 27.08 79.25 27.08 79.25 33.27 73.17 33.27 73.17 27.08 75.55 27.08 75.55 21.58 66.22 21.58 66.22 27.08 68.61 27.08 68.61 33.27 62.53 33.27 62.53 27.08 64.91 27.08 64.91 21.58 55.58 21.58 55.58 27.08 57.97 27.08 57.97 33.27 51.89 33.27 51.89 27.08 54.27 27.08 54.27 21.58 44.94 21.58 44.94 27.08 47.33 27.08 47.33 33.27 41.25 33.27 41.25 27.08 43.63 27.08 43.63 21.58 34.3 21.58 34.3 27.08 36.69 27.08 36.69 33.27 30.61 33.27 30.61 27.08 32.99 27.08 32.99 21.58 25.21 21.58 25.21 143.61 138.35 143.61 138.35 21.58 130.06 21.58"/><polygon class="cls-28" points="130 21.58 130 27.07 132.38 27.07 132.38 33.24 126.31 33.24 126.31 27.07 128.69 27.07 128.69 21.58 119.39 21.58 119.39 27.07 121.77 27.07 121.77 33.24 115.7 33.24 115.7 27.07 118.08 27.07 118.08 21.58 108.78 21.58 108.78 27.07 111.16 27.07 111.16 33.24 105.09 33.24 105.09 27.07 107.47 27.07 107.47 21.58 98.17 21.58 98.17 27.07 100.55 27.07 100.55 33.24 94.48 33.24 94.48 27.07 96.86 27.07 96.86 21.58 87.56 21.58 87.56 27.07 89.94 27.07 89.94 33.24 83.87 33.24 83.87 27.07 86.25 27.07 86.25 21.58 76.95 21.58 76.95 27.07 79.33 27.07 79.33 33.24 73.26 33.24 73.26 27.07 75.64 27.07 75.64 21.58 66.34 21.58 66.34 27.07 68.72 27.07 68.72 33.24 62.65 33.24 62.65 27.07 65.03 27.07 65.03 21.58 55.73 21.58 55.73 27.07 58.1 27.07 58.1 33.24 52.04 33.24 52.04 27.07 54.42 27.07 54.42 21.58 45.12 21.58 45.12 27.07 47.5 27.07 47.5 33.24 41.43 33.24 41.43 27.07 43.81 27.07 43.81 21.58 34.51 21.58 34.51 27.07 36.88 27.07 36.88 33.24 30.82 33.24 30.82 27.07 33.2 27.07 33.2 21.58 25.43 21.58 25.43 143.29 138.27 143.29 138.27 21.58 130 21.58"/><polygon class="cls-29" points="129.94 21.58 129.94 27.05 132.31 27.05 132.31 33.21 126.27 33.21 126.27 27.05 128.64 27.05 128.64 21.58 119.36 21.58 119.36 27.05 121.73 27.05 121.73 33.21 115.69 33.21 115.69 27.05 118.06 27.05 118.06 21.58 108.78 21.58 108.78 27.05 111.15 27.05 111.15 33.21 105.11 33.21 105.11 27.05 107.48 27.05 107.48 21.58 98.2 21.58 98.2 27.05 100.57 27.05 100.57 33.21 94.52 33.21 94.52 27.05 96.9 27.05 96.9 21.58 87.62 21.58 87.62 27.05 89.99 27.05 89.99 33.21 83.94 33.21 83.94 27.05 86.31 27.05 86.31 21.58 77.03 21.58 77.03 27.05 79.41 27.05 79.41 33.21 73.36 33.21 73.36 27.05 75.73 27.05 75.73 21.58 66.45 21.58 66.45 27.05 68.83 27.05 68.83 33.21 62.78 33.21 62.78 27.05 65.15 27.05 65.15 21.58 55.87 21.58 55.87 27.05 58.24 27.05 58.24 33.21 52.2 33.21 52.2 27.05 54.57 27.05 54.57 21.58 45.29 21.58 45.29 27.05 47.66 27.05 47.66 33.21 41.62 33.21 41.62 27.05 43.99 27.05 43.99 21.58 34.71 21.58 34.71 27.05 37.08 27.05 37.08 33.21 31.03 33.21 31.03 27.05 33.41 27.05 33.41 21.58 25.66 21.58 25.66 142.98 138.19 142.98 138.19 21.58 129.94 21.58"/></g><path class="cls-30" d="M24.66,144V20.58H141.22V144ZM133.23,32.21V28.05h-4.15v4.16Zm-10.77,0V28.05h-4.15v4.16Zm-10.77,0V28.05h-4.16v4.16Zm-10.77,0V28.05H96.76v4.16Zm-10.77,0V28.05H86v4.16Zm-10.78,0V28.05H75.22v4.16Zm-10.77,0V28.05H64.45v4.16Zm-10.77,0V28.05H53.67v4.16Zm-10.77,0V28.05H42.9v4.16Zm-10.77,0V28.05H32.13v4.16Z"/><path class="cls-31" d="M140.22,21.58V143H25.66V21.58h7.89v5.47H31.13v6.16h6.16V27.05H34.87V21.58h9.45v5.47H41.9v6.16h6.16V27.05H45.64V21.58h9.45v5.47H52.67v6.16h6.16V27.05H56.41V21.58h9.45v5.47H63.45v6.16H69.6V27.05H67.19V21.58h9.44v5.47H74.22v6.16h6.15V27.05H78V21.58h9.45v5.47H85v6.16h6.16V27.05H88.73V21.58h9.45v5.47H95.76v6.16h6.16V27.05H99.5V21.58H109v5.47h-2.42v6.16h6.16V27.05h-2.41V21.58h9.44v5.47h-2.41v6.16h6.15V27.05h-2.41V21.58h9.44v5.47h-2.41v6.16h6.15V27.05h-2.41V21.58h8.4m2-2H23.66V145H142.22V19.58Zm-12.14,9.47h2.15v2.16h-2.15V29.05Zm-10.77,0h2.15v2.16h-2.15V29.05Zm-10.78,0h2.16v2.16h-2.16V29.05Zm-10.77,0h2.16v2.16H97.76V29.05ZM87,29.05h2.16v2.16H87V29.05Zm-10.77,0h2.15v2.16H76.22V29.05Zm-10.77,0H67.6v2.16H65.45V29.05Zm-10.78,0h2.16v2.16H54.67V29.05Zm-10.77,0h2.16v2.16H43.9V29.05Zm-10.77,0h2.16v2.16H33.13V29.05Z"/><polygon class="cls-32" points="59.05 30.05 59.54 28.09 58.4 26.42 58.84 24.2 57.7 22.54 58.23 20.83 57.09 19.16 57.67 17.72 56.52 16.05 111.73 5.81 111.11 7.93 112.31 9.05 111.74 11.43 112.99 12.81 112.37 14.66 113.57 16.05 113.06 18.16 114.25 19.82 59.05 30.05"/><rect class="cls-33" x="35.91" y="50.17" width="94.07" height="0.07"/><rect class="cls-33" x="35.91" y="57.02" width="94.07" height="0.07"/><rect class="cls-33" x="35.91" y="63.87" width="94.07" height="0.07"/><rect class="cls-33" x="35.91" y="70.72" width="94.07" height="0.07"/><rect class="cls-33" x="35.91" y="77.58" width="94.07" height="0.07"/><rect class="cls-33" x="35.91" y="84.43" width="94.07" height="0.07"/><rect class="cls-33" x="35.91" y="91.28" width="94.07" height="0.07"/><rect class="cls-33" x="35.91" y="98.13" width="94.07" height="0.07"/><rect class="cls-33" x="35.91" y="104.98" width="94.07" height="0.07"/><rect class="cls-33" x="35.91" y="111.83" width="94.07" height="0.07"/><rect class="cls-33" x="35.91" y="118.68" width="94.07" height="0.07"/><rect class="cls-33" x="35.91" y="125.54" width="94.07" height="0.07"/></g></g></svg>