<svg id="레이어_1" data-name="레이어 1" xmlns="http://www.w3.org/2000/svg" viewBox="0 0 160 160"><defs><style>.cls-1{fill:#77d2ac;}.cls-2{fill:#2e2c26;}.cls-3{fill:#fbf5e7;}.cls-4{fill:#f1e6e0;}.cls-5{fill:#fcb3a2;}.cls-6{fill:#0d1b3b;}.cls-7{fill:#fff;}.cls-8{fill:#ff8b84;}.cls-9{fill:#fee566;}.cls-10{fill:#5e1212;}</style></defs><title>무제-2</title><path class="cls-1" d="M12.94,31.45,26.2,151.06a6.86,6.86,0,0,0,6.81,6.1H85.89a6.86,6.86,0,0,0,6.82-7.57L80.17,30.14a6.06,6.06,0,0,0-6-5.43H19A6.07,6.07,0,0,0,12.94,31.45Z"/><path class="cls-2" d="M19.89,31.45,33.15,151.06a6.86,6.86,0,0,0,6.81,6.1H92.84a6.84,6.84,0,0,0,6.81-7.57L87.12,30.14a6.07,6.07,0,0,0-6-5.43H25.92A6.06,6.06,0,0,0,19.89,31.45Z"/><path class="cls-3" d="M24.87,35.09,37.33,144.6a6.43,6.43,0,0,0,6.39,5.73H89a6.44,6.44,0,0,0,6.4-7.11L83.61,33.86a5.72,5.72,0,0,0-5.67-5.11H30.54A5.71,5.71,0,0,0,24.87,35.09Z"/><path class="cls-2" d="M43.48,25l1,5.33A2.62,2.62,0,0,0,47,32.49h17a2.37,2.37,0,0,0,2.32-2.8L65.51,25Z"/><path class="cls-4" d="M33.36,46.78l4.18,36a4.33,4.33,0,0,0,4.3,3.85H78.58a4.33,4.33,0,0,0,4.31-4.78L79.17,46a3.85,3.85,0,0,0-3.82-3.44H37.17A3.84,3.84,0,0,0,33.36,46.78Z"/><path class="cls-4" d="M39.37,98.07l4.18,36A4.34,4.34,0,0,0,47.86,138H84.59a4.32,4.32,0,0,0,4.31-4.78L85.18,97.24a3.84,3.84,0,0,0-3.81-3.44H43.19A3.85,3.85,0,0,0,39.37,98.07Z"/><polygon class="cls-5" points="133.04 149.08 127.67 133.07 115.43 134.42 121.67 151.24 133.5 149.56 133.04 149.08"/><path class="cls-6" d="M120.12,147.46s8.48,2.91,11.8-1.67l15.6,8.82-29.11-.17Z"/><polygon class="cls-7" points="147.51 157.11 118.39 156.93 118.41 154.44 147.52 154.62 147.51 157.11"/><path class="cls-7" d="M131.74,149.65a.43.43,0,0,0,.2-.15,10.19,10.19,0,0,1,2.23-2.18.44.44,0,0,0,.13-.63.49.49,0,0,0-.66-.12,10.48,10.48,0,0,0-2.48,2.4.44.44,0,0,0,.11.63A.49.49,0,0,0,131.74,149.65Z"/><path class="cls-7" d="M134.07,150.82a.43.43,0,0,0,.2-.15,9.91,9.91,0,0,1,2.23-2.18.44.44,0,0,0,.13-.63.5.5,0,0,0-.66-.13,10.74,10.74,0,0,0-2.48,2.4.45.45,0,0,0,.11.64A.49.49,0,0,0,134.07,150.82Z"/><path class="cls-7" d="M136.4,152a.43.43,0,0,0,.2-.15,9.71,9.71,0,0,1,2.23-2.17A.45.45,0,0,0,139,149a.5.5,0,0,0-.66-.12,10.48,10.48,0,0,0-2.48,2.4.44.44,0,0,0,.11.63A.49.49,0,0,0,136.4,152Z"/><path class="cls-8" d="M107.52,73.64l4.56,6.83a378.23,378.23,0,0,1,22.37,60.93l-19.17.95S98.92,100,94.46,91.7L85,75.23Z"/><polygon class="cls-5" points="41.06 92.84 57.24 100.63 64.07 88.83 47.05 83.15 41.98 87.67 41.06 92.84"/><path class="cls-6" d="M51,84.39l-4.37-5.71L31.89,96.76l.33,2.92,12.65-5.05C43.38,89.18,51,84.39,51,84.39Z"/><path class="cls-7" d="M42,92.08a.53.53,0,0,0,0,.25,10.25,10.25,0,0,1,.3,3.1.44.44,0,0,0,.4.5.51.51,0,0,0,.52-.44,10.51,10.51,0,0,0-.32-3.43.44.44,0,0,0-.56-.32A.5.5,0,0,0,42,92.08Z"/><path class="cls-7" d="M39.6,93.16a.53.53,0,0,0,0,.25,9.88,9.88,0,0,1,.3,3.1.44.44,0,0,0,.41.5.49.49,0,0,0,.51-.43,10.58,10.58,0,0,0-.32-3.44.43.43,0,0,0-.56-.31A.51.51,0,0,0,39.6,93.16Z"/><path class="cls-7" d="M37.24,94.25a.42.42,0,0,0,0,.25,9.87,9.87,0,0,1,.3,3.1.44.44,0,0,0,.41.5.49.49,0,0,0,.51-.44,10.52,10.52,0,0,0-.32-3.43.44.44,0,0,0-.56-.32A.49.49,0,0,0,37.24,94.25Z"/><polygon class="cls-7" points="46.59 78.69 44.66 77.11 31.49 93.3 31.89 96.76 46.59 78.69"/><polygon class="cls-8" points="56.3 83.91 83.74 96.85 77.85 114.53 48.77 99.44 56.3 83.91"/><path class="cls-8" d="M86.39,73.64c-.39-.36-11.11,19.9-15,29.39-1.88,4.53,1.91,9.72,6.49,11.5h0a8.76,8.76,0,0,0,10.79-3.87l13-21Z"/><path class="cls-5" d="M107.35,49.66a6.11,6.11,0,0,0-7.73-3.86l-21,7a6,6,0,0,0-1.76.92l-15,11.35a5.66,5.66,0,0,0-.91.85,12.89,12.89,0,0,0-3.15,4.26v0l-4.14,4.37a1.56,1.56,0,0,0-.38,2,1.34,1.34,0,0,0,1.94-.05l.67-.61L54.56,78a1.71,1.71,0,0,0,.25,2.27,1.61,1.61,0,0,0,2.25-.49L59.9,76,57,80.57a1.78,1.78,0,0,0,.32,2.34,1.65,1.65,0,0,0,2.33-.41l2.11-2.8-1.11,2.46a1.73,1.73,0,0,0,.59,2.27,1.69,1.69,0,0,0,2.28-.7l2.29-4.13a1.7,1.7,0,0,0,1.48,1.14h0a2,2,0,0,0,2.06-1.61,46,46,0,0,0,1.56-5.55l12.52-9.49,20-6.7A6.11,6.11,0,0,0,107.35,49.66Z"/><path class="cls-9" d="M79.88,79.24l30.39,1.56L115,55.06a10.6,10.6,0,0,0-.21-5.19c-1.14-3.7-2.79-4.74-7.15-6.44C99.51,40.25,91.5,46.88,88,56S79.88,79.24,79.88,79.24Z"/><path class="cls-5" d="M142.39,92.26l-4.45-1.6a1.69,1.69,0,0,0,.89-1.64,2,2,0,0,0-1.91-1.77,46,46,0,0,0-6.13-.67l-13.54-9.9-7.39-21.83a6.11,6.11,0,0,0-11.58,3.92l8,23.66a6.25,6.25,0,0,0,2.18,3l16.39,12c.08.06.17.1.25.15h0a12.83,12.83,0,0,0,4.84,2.52h0l5,3.39a1.57,1.57,0,0,0,2,.06,1.34,1.34,0,0,0-.36-1.91l-.71-.56,2.32,1a1.7,1.7,0,0,0,2.2-.61,1.6,1.6,0,0,0-.84-2.14l-4.17-2.2,5,2.1a1.76,1.76,0,0,0,2.26-.69,1.64,1.64,0,0,0-.78-2.23l-3.1-1.64,2.61.71a1.72,1.72,0,0,0,2.14-.94A1.69,1.69,0,0,0,142.39,92.26Z"/><path class="cls-9" d="M112.4,61.11l-1.74-6.36a7.81,7.81,0,0,0-9.11-5.53h0A7.82,7.82,0,0,0,95.62,59l1.92,6.9Z"/><path class="cls-5" d="M110.79,28.21l-8.17,15s1.56,2.15,5.84,3.3,4.62-.66,4.62-.66l6.31-11.47Z"/><polygon class="cls-2" points="111.55 36.38 114.2 43.81 117.19 38.54 111.55 36.38"/><path class="cls-5" d="M126.52,35.15l-1.45-2.63c.09-1.29.11-2.63.07-4-.19-5.87-2.79-6.83-2.79-6.83L110.16,26.6l1.29,10.33c2.61,3.69,6.38,4.9,9.39,4.19,2.18-.51,3.37-2.93,3.93-6.08Z"/><circle class="cls-10" cx="105.03" cy="15.4" r="6.24" transform="translate(49.31 105.76) rotate(-66.68)"/><path class="cls-2" d="M107,21.88a.48.48,0,0,1-.21-.85l3.57-2.75a.48.48,0,1,1,.58.76l-3.57,2.75A.49.49,0,0,1,107,21.88Z"/><path class="cls-10" d="M116.31,17.54h0a11,11,0,0,0-2.81.11,12.15,12.15,0,0,0-4.29,1.81A10.69,10.69,0,0,0,104.71,30c.23,1.51,1.81,4.12,2.42,5.49l5-3.1,1.72-2.28s2.43,1.15,6.28-4l6.07.66C128,17.93,116.31,17.54,116.31,17.54Z"/><path class="cls-5" d="M115,30.56a3.13,3.13,0,1,1-1.73-4.07A3.11,3.11,0,0,1,115,30.56Z"/><path d="M113.2,30.18a.18.18,0,0,1-.15-.17,1.72,1.72,0,0,0-1.6-1.69.18.18,0,0,1,0-.36,2.1,2.1,0,0,1,1.94,2,.17.17,0,0,1-.17.19Z"/><path class="cls-2" d="M105,9.16a6.18,6.18,0,0,1,1,.09,6.24,6.24,0,0,1,5.12,7.18,6.39,6.39,0,0,1-.58,1.76h0a.49.49,0,0,1,.38.18.42.42,0,0,1,0,.1,9.61,9.61,0,0,1,4.3-1c.34,0,.66,0,1,.05h0s11.69.39,9.85,9.22L125,26.63a14.9,14.9,0,0,1,.17,1.91c0,1.35,0,2.69-.07,4l1.45,2.63L124.77,35c-.56,3.15-1.75,5.57-3.93,6.08a7.24,7.24,0,0,1-1.69.19,8.37,8.37,0,0,1-3.16-.64l-1.79,3.14-1.12,2a1,1,0,0,1-.25.42,8.22,8.22,0,0,1,2,3.6,10.6,10.6,0,0,1,.21,5.19l-1.79,9.72,4,11.9,13.54,9.9a46,46,0,0,1,6.13.67A2,2,0,0,1,138.83,89a1.69,1.69,0,0,1-.89,1.64l4.45,1.6a1.69,1.69,0,0,1,1.05,2.15,1.66,1.66,0,0,1-1.58,1,2.16,2.16,0,0,1-.56-.08l-2.61-.71,3.1,1.64a1.64,1.64,0,0,1,.78,2.23,1.69,1.69,0,0,1-1.5.85,1.89,1.89,0,0,1-.76-.16l-5-2.1,4.17,2.2a1.6,1.6,0,0,1,.84,2.14,1.56,1.56,0,0,1-1.41.77,2,2,0,0,1-.79-.16l-2.32-1,.71.56a1.34,1.34,0,0,1,.36,1.91,1.17,1.17,0,0,1-.86.33,2,2,0,0,1-1.14-.39l-5-3.39h0a12.83,12.83,0,0,1-4.84-2.52h0c-.08,0-.17-.09-.25-.15l-7.65-5.59a384.63,384.63,0,0,1,17.24,49.61l-3.92.19,1.41,4.22,1.54.87.16-.11a.5.5,0,0,1,.26-.08.48.48,0,0,1,.4.2.43.43,0,0,1,0,.46l1.37.78.28-.2a.48.48,0,0,1,.26-.07.48.48,0,0,1,.4.2.43.43,0,0,1-.06.56l1.34.76c.22-.17.37-.27.39-.28a.5.5,0,0,1,.26-.08.48.48,0,0,1,.4.2.45.45,0,0,1-.13.64l0,0,8.72,4.93v2.5l-29.12-.18,0-2.49,1.71-7,.17.06-2-5.32-3,.15s-12-31.08-18.25-45.2l-8.39,13.51a8.76,8.76,0,0,1-10.79,3.87,11.63,11.63,0,0,1-2-1.06l-27-14,1.14-2.34-5.09-2.45-1.62.65c0,.1,0,.18,0,.19a.5.5,0,0,1-.48.44h0a.46.46,0,0,1-.37-.27l-1.46.58c0,.2,0,.32,0,.34a.49.49,0,0,1-.48.43h0a.41.41,0,0,1-.4-.4l-1.43.57c0,.28,0,.46,0,.48a.49.49,0,0,1-.48.44h0a.44.44,0,0,1-.41-.5v0l-5.31,2.12-.73-6.38L44.66,77.11l1.93,1.57L51,84.39l-.07,0,4.44,1.48,1-2,19.6,9.25c2.38-4.86,5-10,7.07-13.76l-3.09-.16s2.6-7.95,5.37-15.75l-1.8.6L70.93,73.58a46,46,0,0,1-1.56,5.55,2.06,2.06,0,0,1-1.94,1.61h-.12a1.69,1.69,0,0,1-1.42-1s0,0-.06,0h0l-.07,0-2.2,4a1.79,1.79,0,0,1-1.52.91,1.5,1.5,0,0,1-.76-.21,1.73,1.73,0,0,1-.59-2.27l1.11-2.46-2.11,2.8a1.74,1.74,0,0,1-1.4.73,1.48,1.48,0,0,1-.93-.32A1.78,1.78,0,0,1,57,80.57L59.9,76l-2.84,3.76a1.81,1.81,0,0,1-1.42.77,1.32,1.32,0,0,1-.83-.28A1.71,1.71,0,0,1,54.56,78l1.36-2.13-.67.61a1.74,1.74,0,0,1-1.1.44,1,1,0,0,1-.84-.39,1.56,1.56,0,0,1,.38-2l4.14-4.37v0A12.89,12.89,0,0,1,61,65.94a5.66,5.66,0,0,1,.91-.85l15-11.35a6,6,0,0,1,1.76-.92L92.75,48.1c2.85-3.2,6.4-5.28,10.18-5.46L107,35.18c-.68-1.43-2.08-3.79-2.29-5.21a10.9,10.9,0,0,1,2.07-8.18.43.43,0,0,1-.1-.09.51.51,0,0,1-.09-.26,6.24,6.24,0,0,1-1.56.2,6.06,6.06,0,0,1-1-.09,6.24,6.24,0,0,1,1-12.39m0-2h0a8.24,8.24,0,0,0-1.49,16.34,13.05,13.05,0,0,0-.8,6.76,16.74,16.74,0,0,0,1.87,4.62l.13.26-3,5.61a17.3,17.3,0,0,0-10.07,5.61L78,50.92a8,8,0,0,0-2.33,1.23l-15,11.34a7.82,7.82,0,0,0-1.12,1A14.52,14.52,0,0,0,56.21,69l-4,4.17a3.5,3.5,0,0,0-.54,4.56,3.05,3.05,0,0,0,.59.6,3.57,3.57,0,0,0,1.28,3.53,3.37,3.37,0,0,0,1.22.59l0,.12a1.94,1.94,0,0,0-.34.49l-.2.42-2.06-.69-4.06-5.3a2.65,2.65,0,0,0-.33-.34l-1.93-1.57a2,2,0,0,0-1.26-.45h-.21a2,2,0,0,0-1.35.73L29.94,92a2,2,0,0,0-.44,1.49l.73,6.38a2,2,0,0,0,2,1.78,2.11,2.11,0,0,0,.74-.14L37,99.91a2.62,2.62,0,0,0,.78.19H38A2.46,2.46,0,0,0,40,99h.31a2.48,2.48,0,0,0,2.06-1.1h.31a2.47,2.47,0,0,0,2-1.09L47.23,98l-.26.53a2,2,0,0,0,.88,2.64l26.95,14a13.51,13.51,0,0,0,2.33,1.19,10.74,10.74,0,0,0,13.23-4.71l6.35-10.23c6.41,15,16.6,41.34,16.71,41.62a2,2,0,0,0,1.86,1.28h.1l1.57-.08,1.14,3.08L116.47,154a1.89,1.89,0,0,0-.06.47l0,2.49a2,2,0,0,0,.58,1.42,2,2,0,0,0,1.41.59l29.11.18h0a2,2,0,0,0,2-2v-2.49a2,2,0,0,0-1-1.76L141,148.6a2.67,2.67,0,0,0-.35-.72,2.48,2.48,0,0,0-2-1.06h-.21l-.08-.12a2.48,2.48,0,0,0-2-1.05H136l-.08-.13a2.5,2.5,0,0,0-2-1h-.2l-.1-.06-.33-1,1.28-.06a2,2,0,0,0,1.84-2.5A390.51,390.51,0,0,0,121.8,97.62L123.68,99a1.45,1.45,0,0,0,.26.17,14.57,14.57,0,0,0,5.07,2.71l4.74,3.22a4,4,0,0,0,2.29.76,3.14,3.14,0,0,0,2.3-.95,3,3,0,0,0,.5-.69h.1a3.58,3.58,0,0,0,3.18-1.83,3.31,3.31,0,0,0,.38-1.3,3.64,3.64,0,0,0,1.83-1.61,3.5,3.5,0,0,0,.27-2.71,2.32,2.32,0,0,0-.13-.37,3.53,3.53,0,0,0,.84-1.26,3.71,3.71,0,0,0-2.19-4.73l-.06,0-2.24-.81a4.45,4.45,0,0,0,0-.73,4.05,4.05,0,0,0-3.63-3.57,46.69,46.69,0,0,0-5.71-.66l-12.54-9.17-3.66-10.81L117,55.42a12.55,12.55,0,0,0-.26-6.14,11.74,11.74,0,0,0-1.47-3.22l.71-1.28,1-1.72a9.81,9.81,0,0,0,2.22.25,9.57,9.57,0,0,0,2.15-.24c1.72-.41,3.89-1.79,5-5.93h.18a2,2,0,0,0,1.75-3l-1.17-2.11c.07-1.14.08-2.34,0-3.57a2,2,0,0,0,1-1.33,8.51,8.51,0,0,0-1.45-7.23c-3.23-4.12-10-4.39-10.29-4.4h-.07c-.32,0-.64,0-1,0a13.66,13.66,0,0,0-2.08.17,8.26,8.26,0,0,0-6.87-8.4A9.14,9.14,0,0,0,105,7.16ZM72.73,74.73l8.8-6.68c-2,5.74-3.53,10.5-3.55,10.57a2,2,0,0,0,.25,1.75,2,2,0,0,0,1.5.86c-1.57,3-3.23,6.21-4.75,9.28l-10.4-4.9a4.09,4.09,0,0,0,.68-.86l0,0,1.16-2.09a3.39,3.39,0,0,0,.72.13h.26a4.07,4.07,0,0,0,3.85-3,47.33,47.33,0,0,0,1.45-5Z"/></svg>