<svg xmlns="http://www.w3.org/2000/svg" xmlns:xlink="http://www.w3.org/1999/xlink" viewBox="0 0 160 160"><defs><style>.cls-1,.cls-12{fill:none;}.cls-2{isolation:isolate;}.cls-3{clip-path:url(#clip-path);}.cls-4{fill:#fbf5e7;}.cls-5{fill:#2e2c26;}.cls-6,.cls-9{fill:#ffe1dc;}.cls-10,.cls-12,.cls-6{stroke:#2e2c26;}.cls-12,.cls-6{stroke-miterlimit:10;}.cls-7{mix-blend-mode:multiply;}.cls-8{fill:#e9dfdc;}.cls-10{fill:#ff8b84;stroke-linecap:round;stroke-linejoin:round;}.cls-11{fill:#f4624d;}.cls-12{stroke-width:2px;}</style><clipPath id="clip-path"><path class="cls-1" d="M17.75,141.23c5.19-.29,12.33-1.39,18.43-4.85a4,4,0,0,1,5.19,1.21c3.57,5,13.41,13.73,38.73,14.62,35.59,1.24,62.22-23.65,62.47-61.23S114.12-9.35,82.51-10.84,30.31,50.4,26.08,73.8s3.43,37.36,3.43,37.36,0,11.36-13.89,25.31A2.79,2.79,0,0,0,17.75,141.23Z"/></clipPath></defs><title>무제-2</title><g class="cls-2"><g id="레이어_1" data-name="레이어 1"><g class="cls-3"><path class="cls-4" d="M17.75,141.23c5.19-.29,12.33-1.39,18.43-4.85a4,4,0,0,1,5.19,1.21c3.57,5,13.41,13.73,38.73,14.62,35.59,1.24,62.22-23.65,62.47-61.23S117.93,32.73,86.32,31.24,30.31,50.4,26.08,73.8s3.43,37.36,3.43,37.36,0,11.36-13.89,25.31A2.79,2.79,0,0,0,17.75,141.23Z"/><path class="cls-5" d="M60.25,36.66c-1.11-1-4.66-.92-5.17.72a.29.29,0,0,0,.13.33l.18.06A37.89,37.89,0,0,0,53.3,43a40.5,40.5,0,0,0-1.13,6.2A26.67,26.67,0,0,0,52,55.44c.17,1.78.41,4,1.39,5.53a.23.23,0,0,0,.42-.18c0-.14-.07-.27-.11-.41,2-5.62,4-11.24,5.67-17,.43-1.43.91-2.85,1.28-4.29A2.33,2.33,0,0,0,60.25,36.66Z"/><path class="cls-5" d="M86.55,74.1c2,1.26,2.18,4.12,1.48,6.36s-2,4.35-2,6.69a8.37,8.37,0,0,0,4,6.77,18.5,18.5,0,0,0,7.86,2.65,39.88,39.88,0,0,0,12.62-.27A15.67,15.67,0,0,0,118.18,93c2.09-1.88,3.2-5,2-7.49-.7-1.48-2.06-2.54-3.2-3.74s-2.13-2.77-1.8-4.36,1.75-2.6,3.12-3.45c4.14-2.57,9-4.89,10.87-9.26,2-4.62,0-10-3.24-14s-7.48-7-10.86-10.79a10.59,10.59,0,0,1-2.14-3.26c-.92-2.49-.14-5.23.39-7.83,1.18-5.82.84-12.48-3.36-16.83A13.14,13.14,0,0,0,99.83,8.19a13,13,0,0,0-9.49,5.15c-2.1,2.89-2.81,6.51-3,10a43.84,43.84,0,0,0,.94,12.3,29.85,29.85,0,0,1,1.16,7c-.14,6-5.11,11.12-5.9,17.13-.64,4.81,1.47,9.52,3.54,13.94"/><path class="cls-6" d="M67.8,86.54A50.59,50.59,0,0,1,67.21,96c-.28,1.71-.81,3.65-2.38,4.4a5.77,5.77,0,0,1-2.48.37H53.72c-1,4.18-1.92,8.54-.87,12.69a14,14,0,0,0,11.91,10.24c4.18.39,8.3-1.15,12.08-3a32.88,32.88,0,0,0,5.47-3.2c5.49-4.12,8.62-10.73,10.24-17.4.13-.56.21-1.26-.26-1.59a1.47,1.47,0,0,0-.93-.15c-3.29.25-6.65,1.28-9.83.38a1.57,1.57,0,0,1-.71-.37,1.69,1.69,0,0,1-.31-1.17l-.14-12.87a1.88,1.88,0,0,0-.28-1.17,1.78,1.78,0,0,0-1.16-.49,14.48,14.48,0,0,0-10.24,2.5"/><g class="cls-7"><path class="cls-8" d="M67.51,93.7A29.87,29.87,0,0,0,76.14,93a20.17,20.17,0,0,0,4.31-1.55q0-3.54-.08-7.09a1.88,1.88,0,0,0-.28-1.17,1.78,1.78,0,0,0-1.16-.49,14.48,14.48,0,0,0-10.24,2.5l-.89,1.36A50.39,50.39,0,0,1,67.51,93.7Z"/></g><path class="cls-6" d="M59.46,35.07c-3.41,7.4-4.92,15.51-6.12,23.57-1.07,7.17-1.86,14.81,1.15,21.4a18.67,18.67,0,0,0,8.67,9.06A16.54,16.54,0,0,0,75.6,90a26.55,26.55,0,0,0,6-3.21,27.55,27.55,0,0,0,5-4.07,21.63,21.63,0,0,0,5.11-11.28A56.42,56.42,0,0,0,92,58.89q-.6-9.42-1.81-18.78a8.8,8.8,0,0,0-1.19-4c-1.59-2.26-4.77-2.55-7.53-2.61-7.26-.19-14.67-.35-21.61,1.8"/><path class="cls-9" d="M90.43,64a10,10,0,0,1,7.48-4.6,4.82,4.82,0,0,1,2.32.27,3.79,3.79,0,0,1,2.17,3.49,5.24,5.24,0,0,1-1.88,3.79,8.44,8.44,0,0,1-3.93,1.77,8,8,0,0,1-3.93-.12,4.79,4.79,0,0,1-3-2.47"/><path class="cls-10" d="M113.12,107.24c-.67-5.27-2.55-10.87-7.81-13.16a10.13,10.13,0,0,0-7.5.06,63,63,0,0,0-9,4.2.6.6,0,0,0-.43.38c-3.09,8.44-9.56,16.45-18.14,19.67-4.18,1.57-10.86,2.1-12.66-3.13a15.12,15.12,0,0,1-.34-6.14,67.1,67.1,0,0,1,1.23-8.1.41.41,0,0,0-.46-.49c-1.11-3-4.49-4.43-7.67-3.71-4.24,1-6.89,4.74-8.55,8.49-4.17,9.44-5.3,19.86-6.33,30-.31,3-.63,6-.78,9a28,28,0,0,0,.51,8.86.49.49,0,0,0,.74.27,18.4,18.4,0,0,0,6,3.48,59.54,59.54,0,0,0,8.24,2.67,132.67,132.67,0,0,0,16.92,2.92,69.16,69.16,0,0,0,17.37.15c2.89-.39,5.77-.93,8.66-1.35a54.51,54.51,0,0,1,7.65-.43.76.76,0,0,0,1.28.62c1.93-2.23,3.06-5.45,4.21-8.15a91.55,91.55,0,0,0,3.21-8.65,96.2,96.2,0,0,0,3.79-18.4A81.72,81.72,0,0,0,113.12,107.24Z"/><path class="cls-5" d="M75.09,61.78a9.17,9.17,0,0,1,1.65-2.11,2.57,2.57,0,0,1,1-.47,1.64,1.64,0,0,1,.93,0A2.8,2.8,0,0,1,80,60.81a5.51,5.51,0,0,1,.29,1.2,2.41,2.41,0,0,0,.46,1.35.42.42,0,0,0,.64.08c1-.82.5-2.35.06-3.35a4.07,4.07,0,0,0-2.35-2.42,3.17,3.17,0,0,0-3.07.89,6.24,6.24,0,0,0-1.55,2.95c-.12.4.42.59.65.27Z"/><path class="cls-5" d="M58.91,59.47c.23-.43.43-.87.65-1.31A6.6,6.6,0,0,1,60.24,57a2,2,0,0,1,1.9-.91c.71.17,1,1,1.14,1.64a8,8,0,0,1,.23,1.37c0,.24,0,.49,0,.73a1.47,1.47,0,0,0,.14,1,.76.76,0,0,0,1.17.15,1.18,1.18,0,0,0,.28-.9c0-.27,0-.55-.09-.83A12,12,0,0,0,64.74,58a5.13,5.13,0,0,0-1.13-2.3,2.33,2.33,0,0,0-2.31-.6,3.37,3.37,0,0,0-1.87,1.51,6.12,6.12,0,0,0-1,2.78.27.27,0,0,0,.49.13Z"/><path class="cls-5" d="M71.36,54.93a23,23,0,0,0-.74,3.58c-.15,1.22-.37,2.42-.59,3.63L69.68,64c-.11.64,0,1.53-.87,1.4a19.08,19.08,0,0,1-3.08-1.08,3.39,3.39,0,0,0-2.7-.11,1.62,1.62,0,0,0-.77,2,5.88,5.88,0,0,0,2,2.11,20.44,20.44,0,0,0,2.74,2,.53.53,0,0,0,.62-.08.5.5,0,0,0,.13-.22.52.52,0,0,0-.23-.58c-.88-.64-1.77-1.23-2.59-2-.38-.33-.75-.66-1.09-1s-.74-1.13.13-1.23,2,.48,2.83.65a7.59,7.59,0,0,0,2.73.12c.63-.09.79-.56.95-1.14.29-1.08.41-2.22.61-3.32s.41-2.1.66-3.15a21.79,21.79,0,0,0,.49-3.32c0-.52-.75-.59-.89-.12Z"/><path class="cls-5" d="M79.64,71.7c-5.7,2.08-11.65,3.24-17.47,4.92-.15,0-.24.5-.11.62,3,2.74,7.55,5.61,11.76,5a5.2,5.2,0,0,0,4.06-3.29A29.39,29.39,0,0,0,79.94,72C80,71.84,79.83,71.64,79.64,71.7Z"/><path class="cls-5" d="M78.9,50.43a.91.91,0,0,1,.23,0H79l.11,0a2.74,2.74,0,0,1,.39.09l.16.06.11,0-.11,0s.15.08.2.1l.15.08a.71.71,0,0,1,.14.1s.24.17.08.05l.07.06c.09.07.21.17.32.24-.28-.18-.09-.07,0,0l.14.13a2.61,2.61,0,0,1,.27.31l-.18-.23a6.85,6.85,0,0,1,.56.94l.12.23c0,.11-.11-.27,0-.07s.07.2.12.3a1.55,1.55,0,0,0,.6.69L82,53.24c.06.09.1.17.15.26a.59.59,0,0,0,.49.28.63.63,0,0,0,.5-.28c.07-.1.13-.2.19-.3l-.47.36c.54-.07.79-.79.79-1.27a3.93,3.93,0,0,0-.15-1,3.15,3.15,0,0,0-.62-1.06,3.19,3.19,0,0,0-.54-.56,3.46,3.46,0,0,0-1-.61,4.18,4.18,0,0,0-.92-.19,3.56,3.56,0,0,0-1.65.19.67.67,0,0,0-.48.74.68.68,0,0,0,.67.6Z"/><path class="cls-5" d="M64.52,48.33a3.89,3.89,0,0,0-1.18-.47,3.52,3.52,0,0,0-1.58.07,3.45,3.45,0,0,0-1.45.67,3.68,3.68,0,0,0-.4.39,2.61,2.61,0,0,0-.48.9,1,1,0,0,0,.26,1h0l-.25-.59a1,1,0,0,0,.26.83.63.63,0,0,0,.61.06l.11,0c.06,0,.06,0,0,0h0l.08,0L59.87,51l0,0a1,1,0,0,0,1,0c.14-.08.29-.14.43-.23s.27-.17.41-.25a4.92,4.92,0,0,0,.43-.26l.22-.12.12-.06.1,0,.24-.07.48-.11.24-.06s.28,0,.11,0,0,0,.05,0h.38a.79.79,0,0,0,.4-1.47Z"/><path class="cls-5" d="M102.16,34.33a6.81,6.81,0,0,0-6.51-.45c-1.57-4-3.49-8.47-7.67-10.24s-9.74.29-12,4.25a29.11,29.11,0,0,0-3.42-4.13,38.34,38.34,0,0,0-6-5.24,14.85,14.85,0,0,0-7.26-3.11A15,15,0,0,0,52,16.72c-4.21,1.82-9.41,5.75-8.58,11a6.54,6.54,0,0,0,4.07,4.87,8.49,8.49,0,0,0,3.26.69,6,6,0,0,0-1.64,2.59c-.75,2.5.61,4.56,2.82,5.65,4.9,2.39,10.74,1.12,15.37-1.4a3,3,0,0,0,1,2.29c1.58,1.49,4.42,2,6.39,2,3.53-.13,8-.85,11.3-2.82,0,.11,0,.22,0,.33.08,1.19.19,2.38.35,3.56a54,54,0,0,0,3.57,13.49c.62,1.5,1.24,3.23,2.53,4.3a.36.36,0,0,0,.24.19l0,0a.31.31,0,0,0,.44-.22A89,89,0,0,0,100,52.93c1.95-3.47,4.35-7.37,5.06-11.34A6.78,6.78,0,0,0,102.16,34.33Z"/><path class="cls-11" d="M74.12,79.19a8.81,8.81,0,0,0-.83,3.07,4.75,4.75,0,0,0,.53-.05,5.2,5.2,0,0,0,4.06-3.29,23.16,23.16,0,0,0,1.25-3.44A6.82,6.82,0,0,0,74.12,79.19Z"/></g><path class="cls-12" d="M17.75,141.23c5.19-.29,12.33-1.39,18.43-4.85a4,4,0,0,1,5.19,1.21c3.57,5,13.41,13.73,38.73,14.62,35.59,1.24,62.22-23.65,62.47-61.23S117.93,32.73,86.32,31.24,30.31,50.4,26.08,73.8s3.43,37.36,3.43,37.36,0,11.36-13.89,25.31A2.79,2.79,0,0,0,17.75,141.23Z"/></g></g></svg>