<svg xmlns="http://www.w3.org/2000/svg" viewBox="0 0 160 160"><defs><style>.cls-1{isolation:isolate;}.cls-2{fill:#2e2c26;}.cls-3,.cls-4{fill:#77d2ac;}.cls-3,.cls-7{stroke:#2e2c26;stroke-miterlimit:10;stroke-width:3px;}.cls-5{fill:#fbf5e7;}.cls-6{opacity:0.2;mix-blend-mode:multiply;}.cls-7{fill:none;}.cls-8{fill:#ff8b84;}</style></defs><title>무제-2</title><g class="cls-1"><g id="레이어_1" data-name="레이어 1"><polygon class="cls-2" points="5.92 60.69 86.62 60.69 121.05 21.94 40.35 21.94 5.92 60.69"/><polygon class="cls-3" points="43.95 25.59 15.05 56.81 15.05 143.16 72.84 143.16 72.84 56.81 43.95 25.59"/><rect class="cls-4" x="72.84" y="56.81" width="77.05" height="86.35"/><rect class="cls-5" x="28.56" y="69.32" width="4.87" height="11.96"/><rect class="cls-5" x="54.9" y="69.32" width="4.87" height="11.96"/><rect class="cls-5" x="28.56" y="91.02" width="4.87" height="11.96"/><rect class="cls-5" x="54.9" y="91.02" width="4.87" height="11.96"/><rect class="cls-6" x="72.84" y="56.81" width="77.05" height="86.35"/><rect class="cls-5" x="83.91" y="69.32" width="4.87" height="11.96"/><rect class="cls-5" x="110.26" y="69.32" width="4.87" height="11.96"/><rect class="cls-5" x="83.91" y="91.02" width="4.87" height="11.96"/><rect class="cls-5" x="110.26" y="91.02" width="4.87" height="11.96"/><rect class="cls-5" x="136.6" y="69.32" width="4.87" height="11.96"/><rect class="cls-5" x="136.6" y="91.02" width="4.87" height="11.96"/><path class="cls-2" d="M50.92,143.16H37V121.68a7,7,0,0,1,7-7h0a7,7,0,0,1,7,7Z"/><rect class="cls-7" x="72.84" y="59.66" width="77.05" height="83.5"/><polygon class="cls-8" points="74.67 59.19 42.91 23.44 119.6 23.44 151.36 59.19 74.67 59.19"/><path class="cls-2" d="M118.93,24.94,148,57.69H75.35L46.25,24.94h72.68m1.34-3H39.57L74,60.69h80.7L120.27,21.94Z"/></g></g></svg>