<svg id="레이어_1" data-name="레이어 1" xmlns="http://www.w3.org/2000/svg" viewBox="0 0 160 160"><defs><style>.cls-1,.cls-5{fill:#fbf5e7;}.cls-1,.cls-3,.cls-4,.cls-5{stroke:#2e2c26;}.cls-1,.cls-4,.cls-5{stroke-miterlimit:10;}.cls-1{stroke-width:3px;}.cls-2{fill:#2e2c26;}.cls-3{fill:#ff8b84;stroke-linecap:round;stroke-linejoin:round;}.cls-3,.cls-4,.cls-5{stroke-width:2px;}.cls-4{fill:#77d2ac;}</style></defs><title>무제-2</title><polygon class="cls-1" points="59.24 152.82 134.49 152.82 134.49 12.5 24.67 12.5 24.67 118.25 59.24 152.82"/><polygon class="cls-2" points="59.24 152.82 59.24 118.25 24.67 118.25 59.24 152.82"/><rect class="cls-3" x="108.04" y="71.06" width="20.34" height="70.46" rx="9.18" transform="translate(-40.54 114.72) rotate(-45)"/><rect class="cls-2" x="101.35" y="100.62" width="28.47" height="6.1" rx="3.05" transform="translate(-39.45 112.09) rotate(-45)"/><circle class="cls-4" cx="81.79" cy="69.88" r="40.67"/><circle class="cls-5" cx="81.79" cy="69.88" r="28.47"/><path class="cls-3" d="M90.62,67.44H84V60.86a2.71,2.71,0,0,0-5.42,0v6.58H72.05a2.71,2.71,0,1,0,0,5.41h6.57v6.58a2.71,2.71,0,0,0,5.42,0V72.85h6.58a2.71,2.71,0,0,0,0-5.41Z"/></svg>