<svg xmlns="http://www.w3.org/2000/svg" viewBox="0 0 160 160"><defs><style>.cls-1{isolation:isolate;}.cls-2{fill:#2e2c26;}.cls-3{fill:#77d2ac;}.cls-3,.cls-4,.cls-6{stroke:#2e2c26;}.cls-3,.cls-6{stroke-miterlimit:10;}.cls-3,.cls-4{stroke-width:3px;}.cls-4{fill:#ff8b84;stroke-linecap:round;stroke-linejoin:round;}.cls-5{opacity:0.2;mix-blend-mode:multiply;}.cls-6{fill:#fee566;stroke-width:2px;}</style></defs><title>무제-2</title><g class="cls-1"><g id="레이어_1" data-name="레이어 1"><path class="cls-2" d="M128.57,138.27h-102V20.55a8.13,8.13,0,0,1,8.13-8.13h93.83a7,7,0,0,1,7,7V131.26A7,7,0,0,1,128.57,138.27Z"/><path class="cls-3" d="M127.22,44.9a3.8,3.8,0,0,0-6.49,2.69v9.86H95.33A10.41,10.41,0,0,0,84.92,67.86h0A10.41,10.41,0,0,0,95.33,78.27h25.4v9.86a3.8,3.8,0,0,0,6.49,2.69l23-23Z"/><path class="cls-4" d="M97.18,153,30,139a4.31,4.31,0,0,1-3.42-4.21V17.71a4.3,4.3,0,0,1,5.18-4.21l62.09,13A12.82,12.82,0,0,1,104.09,39V147.38A5.74,5.74,0,0,1,97.18,153Z"/><path class="cls-5" d="M76.51,86.16A5.94,5.94,0,0,1,77.39,83a6,6,0,1,0,8.23,8.24,6,6,0,0,1-9.11-5.12Z"/><circle class="cls-6" cx="82.51" cy="86.16" r="6"/></g></g></svg>