<svg id="레이어_1" data-name="레이어 1" xmlns="http://www.w3.org/2000/svg" viewBox="0 0 160 160"><defs><style>.cls-1{fill:#ffdf4f;}.cls-2{fill:#2e2c26;}.cls-3{fill:#fbf5e7;}.cls-4,.cls-8{fill:#fff;}.cls-4{stroke:#2e2c26;stroke-miterlimit:10;stroke-width:2px;}.cls-5{fill:#2baeea;}.cls-6{fill:#15417d;}.cls-7{fill:#6e96e6;}.cls-9{fill:#ffcc01;}.cls-10{fill:#fcbd11;}.cls-11{fill:#ffd715;}</style></defs><title>무제-2</title><path class="cls-1" d="M13.49,138.11V40.6a6.36,6.36,0,0,1,6.36-6.35h55.8A6.36,6.36,0,0,1,82,40.6v.82h60.15a6.36,6.36,0,0,1,6.36,6.36v90.33Z"/><path class="cls-2" d="M75.65,35.25A5.36,5.36,0,0,1,81,40.6v1.82h61.15a5.36,5.36,0,0,1,5.36,5.36v89.33h-133V40.6a5.36,5.36,0,0,1,5.36-5.35h55.8m0-2H19.85a7.36,7.36,0,0,0-7.36,7.35v98.51h137V47.78a7.37,7.37,0,0,0-7.36-7.36H83a7.37,7.37,0,0,0-7.35-7.17Z"/><rect class="cls-3" x="20.4" y="50.14" width="122.45" height="87.95"/><polygon class="cls-4" points="84.26 6.52 24.99 30.66 67.24 134.39 145.03 102.7 110.33 17.5 84.26 6.52"/><polygon class="cls-2" points="84.28 6.81 91.91 25.54 110.64 17.91 84.28 6.81"/><rect class="cls-5" x="60.14" y="39.36" width="44.82" height="44.82" transform="translate(-17.2 35.7) rotate(-22.16)"/><polygon class="cls-6" points="64.92 77.9 73.11 57.32 109.86 69.41 111.75 74.06 70.25 90.97 64.92 77.9"/><polygon class="cls-7" points="99.82 44.78 92.99 63.81 109.9 69.52 99.82 44.78"/><circle class="cls-8" cx="90.36" cy="44.33" r="3.68"/><path class="cls-9" d="M19.85,146.45a6.36,6.36,0,0,1-6.36-6.35V72a6.36,6.36,0,0,1,6.36-6.35H76.43l1.73-4.82a6.37,6.37,0,0,1,6-4.19h58A6.36,6.36,0,0,1,148.51,63V140.1a6.36,6.36,0,0,1-6.36,6.35Z"/><path class="cls-2" d="M142.15,57.6A5.35,5.35,0,0,1,147.51,63V140.1a5.36,5.36,0,0,1-5.36,5.35H19.85a5.36,5.36,0,0,1-5.36-5.35V72a5.35,5.35,0,0,1,5.36-5.35H77.13l2-5.48a5.36,5.36,0,0,1,5-3.53h58m0-2h-58a7.38,7.38,0,0,0-6.92,4.85l-1.5,4.16H19.85A7.36,7.36,0,0,0,12.49,72V140.1a7.36,7.36,0,0,0,7.36,7.35h122.3a7.36,7.36,0,0,0,7.36-7.35V63a7.36,7.36,0,0,0-7.36-7.35Z"/><path class="cls-10" d="M147.51,140.1V95.67c-36.95,35.94-101,45.55-131.53,48.12a5.35,5.35,0,0,0,3.87,1.66h122.3A5.36,5.36,0,0,0,147.51,140.1Z"/><path class="cls-11" d="M68.51,70.91H23.28A4.32,4.32,0,0,0,19,75.24v9.57C26.57,79.6,43.73,73,68.51,70.91Z"/></svg>