<svg xmlns="http://www.w3.org/2000/svg" viewBox="0 0 160 160"><defs><style>.cls-1{isolation:isolate;}.cls-2{fill:#c0d7e2;}.cls-3{fill:#f1bdc2;}.cls-4{fill:#d5e7f1;}.cls-5,.cls-7,.cls-8{mix-blend-mode:multiply;}.cls-6{fill:#6a99ad;}.cls-7{opacity:0.32;}.cls-8{opacity:0.15;}</style></defs><title>무제-2</title><g class="cls-1"><g id="레이어_1" data-name="레이어 1"><path class="cls-2" d="M97.7,41.6a22.84,22.84,0,0,1,9.73-11.12,48.19,48.19,0,0,1,14-5.32c5.57-1.33,10.32-2.91,16.12-1.39.78.21,1.73,9.38,1.87,10.75.45,4.19-.57,8.71-1.47,12.8-1.8,8.12-5.89,15.86-12.22,21.25"/><path class="cls-2" d="M62.3,41.6a22.84,22.84,0,0,0-9.73-11.12,48.19,48.19,0,0,0-14-5.32C33,23.83,28.23,22.25,22.43,23.77c-.78.21-1.73,9.38-1.87,10.75-.45,4.19.57,8.71,1.47,12.8,1.8,8.12,5.89,15.86,12.22,21.25"/><path class="cls-3" d="M107.47,44.44a12.18,12.18,0,0,1,5.19-5.93,25.4,25.4,0,0,1,7.47-2.83c3-.71,5.5-1.55,8.59-.74.41.1.92,5,1,5.72a22,22,0,0,1-.78,6.83,20.71,20.71,0,0,1-6.51,11.31"/><path class="cls-3" d="M52.53,44.44a12.18,12.18,0,0,0-5.19-5.93,25.4,25.4,0,0,0-7.47-2.83c-3-.71-5.5-1.55-8.59-.74-.41.1-.92,5-1,5.72a22,22,0,0,0,.78,6.83A20.71,20.71,0,0,0,37.58,58.8"/><path class="cls-4" d="M70.37,31.18c-13.94,2.51-26.68,10.16-34.66,22C30.14,61.46,27,70.84,25.36,80.62c-1.74,10.52-2.67,21.23,1.22,31.39,4.62,12.1,15,16.89,26.16,21a87.22,87.22,0,0,0,40.86,4.88c14.23-1.84,28-8.24,37.37-18.74,10-11.26,8.56-32.72,4.31-46.16-3.4-10.74-9.8-20.07-17.62-28.44-6.25-6.69-13-9.73-22.16-12.23A57.05,57.05,0,0,0,70.37,31.18Z"/><g class="cls-5"><path class="cls-4" d="M135.28,72.94c-3.4-10.74-9.8-20.07-17.62-28.44-6.25-6.69-13-9.73-22.16-12.23A56.39,56.39,0,0,0,84.1,30.4c-2.17,11.73-2.6,24,.86,35.39C88.53,77.54,96.67,88.29,108,93c9.59,4,20.42,3.31,30.5.45A72.92,72.92,0,0,0,135.28,72.94Z"/></g><path class="cls-6" d="M59.46,83.3c6,0,6-9.26,0-9.26s-6,9.26,0,9.26Z"/><path class="cls-6" d="M104.45,83.3c6,0,6-9.26,0-9.26s-6,9.26,0,9.26Z"/><path class="cls-6" d="M81.09,99.11c.39,0,.72-3.1.72-6.93s-.33-6.94-.72-6.94-.73,3.11-.73,6.94S80.69,99.11,81.09,99.11Z"/><path class="cls-6" d="M91.44,90.23c-.21-.1-.85,1.37-2.34,3.33A12.9,12.9,0,0,1,86,96.46a8.27,8.27,0,0,1-9.5,0,14.4,14.4,0,0,1-3.17-2.84c-1.6-1.91-2.42-3.27-2.62-3.16s.34,1.61,1.81,3.78a13.17,13.17,0,0,0,3.23,3.32,9.09,9.09,0,0,0,11,0,11.72,11.72,0,0,0,3.17-3.41C91.3,91.89,91.59,90.28,91.44,90.23Z"/><path class="cls-3" d="M91,80.39c-.11-4.12-11.17-3.75-13.58-3.19-1.74.4-5.16,1-6,2.83-.64,1.48.46,3.1,1.55,4.29,2.18,2.35,4.67,5.71,8.32,5.86,2.06.09,3.87-1.3,5.32-2.77a29.4,29.4,0,0,0,2.92-3.48A6.1,6.1,0,0,0,91,80.39Z"/><g class="cls-7"><path class="cls-3" d="M66.22,98.68c2.16-3.28-.64-8.19-3.77-9.6a14.78,14.78,0,0,0-13,.62C46.62,91.34,44.73,95,46.14,98c1.06,2.23,3.58,3.36,6,3.93a17.3,17.3,0,0,0,10.51-.55A7.71,7.71,0,0,0,66.22,98.68Z"/></g><g class="cls-7"><path class="cls-3" d="M98.05,98.68c-2.16-3.28.64-8.19,3.78-9.6a14.76,14.76,0,0,1,13,.62c2.84,1.64,4.73,5.34,3.32,8.3-1.07,2.23-3.59,3.36-6,3.93a17.3,17.3,0,0,1-10.51-.55A7.69,7.69,0,0,1,98.05,98.68Z"/></g><g class="cls-8"><path class="cls-4" d="M135.28,72.94c-3.4-10.74-9.8-20.07-17.62-28.44-5.4-5.78-11.19-8.83-18.55-11.17,7.23,5.25,12.88,13.33,16.77,21.59,6.89,14.63,12.75,32.65,7.14,48.67s-19.08,28.1-35,34.76c1.88-.11,3.75-.27,5.62-.51,14.23-1.84,28-8.24,37.37-18.74C141,107.84,139.53,86.38,135.28,72.94Z"/></g></g></g></svg>