<svg xmlns="http://www.w3.org/2000/svg" viewBox="0 0 160 160"><defs><style>.cls-1{isolation:isolate;}.cls-2{fill:#ffeac5;}.cls-3,.cls-8{mix-blend-mode:multiply;}.cls-4{fill:#fceede;}.cls-5{fill:#e5939f;}.cls-6{fill:#f4e2ca;}.cls-7{fill:#c97f4c;}.cls-8{opacity:0.14;}.cls-9{fill:#eabf7b;}.cls-10{fill:#845840;}.cls-11{fill:#a85f54;}</style></defs><title>무제-2</title><g class="cls-1"><g id="레이어_1" data-name="레이어 1"><path class="cls-2" d="M88.9,35.55a30.64,30.64,0,0,0,9.65-10.47c2.47-4.27,3.4-8.22,4.64-12.87a4,4,0,0,1,1.15-2.2,2.82,2.82,0,0,1,2.77-.27,6.89,6.89,0,0,1,2.33,1.72c5.19,5.23,6.9,10.93,7.77,18.08.75,6.23,1.3,12.71-.68,18.67"/><g class="cls-3"><path class="cls-2" d="M108.81,32.85a48.79,48.79,0,0,0-8.59-3.37c-1.38-.35-2.68-.71-3.93-.9h-.05l-.33.42.29.06c1.23.21,2.52.58,3.87.94a51.49,51.49,0,0,1,8.48,3.37,52.63,52.63,0,0,1,7.68,4.93l1.65,1.37c0-.22,0-.44,0-.66l-1.33-1.13A49.34,49.34,0,0,0,108.81,32.85Z"/><path class="cls-2" d="M109.2,24.2A52.64,52.64,0,0,0,101.45,23l-1.77-.09c-.08.17-.15.34-.24.5l2,.12a57.65,57.65,0,0,1,7.66,1.22,55.87,55.87,0,0,1,7.39,2.36l.44.19c0-.21-.07-.42-.1-.62l-.14-.06A51.84,51.84,0,0,0,109.2,24.2Z"/><path class="cls-2" d="M115,20c-.09-.25-.2-.5-.31-.75-1.36-.57-2.8-1.09-4.3-1.56A43.1,43.1,0,0,0,102.17,16c0,.18-.1.35-.14.53a43.93,43.93,0,0,1,8.2,1.7A47.86,47.86,0,0,1,115,20Z"/></g><path class="cls-2" d="M73.64,35.55A30.64,30.64,0,0,1,64,25.08c-2.47-4.27-3.4-8.22-4.63-12.87A4.06,4.06,0,0,0,58.2,10a2.82,2.82,0,0,0-2.77-.27,6.89,6.89,0,0,0-2.33,1.72c-5.19,5.23-6.9,10.93-7.77,18.08C44.58,35.77,44,42.25,46,48.21"/><g class="cls-3"><path class="cls-2" d="M53.73,32.85a49.1,49.1,0,0,1,8.59-3.37c1.38-.35,2.68-.71,3.93-.9h0l.33.42-.29.06c-1.23.21-2.51.58-3.87.94A51.49,51.49,0,0,0,54,33.36a52.51,52.51,0,0,0-7.67,4.93c-.57.47-1.13.92-1.66,1.37,0-.22,0-.44,0-.66L46,37.87A50.29,50.29,0,0,1,53.73,32.85Z"/><path class="cls-2" d="M53.34,24.2A52.64,52.64,0,0,1,61.09,23l1.77-.09c.08.17.15.34.24.5l-2,.12a57.65,57.65,0,0,0-7.66,1.22,55.87,55.87,0,0,0-7.39,2.36l-.44.19c0-.21.07-.42.1-.62l.14-.06A51.84,51.84,0,0,1,53.34,24.2Z"/><path class="cls-2" d="M47.53,20c.09-.25.2-.5.31-.75,1.36-.57,2.8-1.09,4.3-1.56A43.1,43.1,0,0,1,60.37,16l.15.53a44,44,0,0,0-8.21,1.7A47.86,47.86,0,0,0,47.53,20Z"/></g><path class="cls-4" d="M55,44.67c-4.72-6.34-11.34-12-19.33-13.38a38.5,38.5,0,0,0-20.4,1.92C15,40.34,20,46.55,25.43,51.17c6.39,5.44,13.56,8.26,22.1,6.08"/><path class="cls-5" d="M51.52,51.76a19.15,19.15,0,0,0-4.64-7.62,16.61,16.61,0,0,0-5-3,27.52,27.52,0,0,0-15.72-1.49C31.28,47.24,38.85,54,48,54.89c.54,0,1.32-.22,1.13-.72"/><path class="cls-4" d="M105,44.67c4.72-6.34,11.34-12,19.33-13.38a38.5,38.5,0,0,1,20.4,1.92c.27,7.13-4.76,13.34-10.19,18-6.39,5.44-13.56,8.26-22.1,6.08"/><path class="cls-5" d="M108.48,51.76a19.15,19.15,0,0,1,4.64-7.62,16.61,16.61,0,0,1,5-3,27.52,27.52,0,0,1,15.72-1.49C128.72,47.24,121.15,54,112,54.89c-.54,0-1.32-.22-1.13-.72"/><path class="cls-6" d="M123.13,65.75c-3.54-10.14-6.94-18.9-15.37-26-13.06-11-37.87-10.19-51.61-.7C45.65,46.27,40.84,59,37.1,70.63A146.81,146.81,0,0,0,29.93,114c0,9.54,2.48,19.48,9.32,26.46,7.6,7.74,18.56,10.13,29,11.13,11,1,23.9.83,34.76-1.65,11.14-2.56,21.8-9.4,26.68-20,4.3-9.38,3-22.79,1.61-32.68C129.79,86.48,126.63,75.76,123.13,65.75Z"/><path class="cls-7" d="M47.22,85.49c2-6.64-.37-14,1.57-20.67.91-3.14,2.77-6.1,2.69-9.36-.07-3-1.77-5.61-3.93-7.85-4.91,6.82-7.93,15.14-10.45,23a153.84,153.84,0,0,0-6,26.35,16.23,16.23,0,0,0,6.18-1A16.52,16.52,0,0,0,47.22,85.49Z"/><path class="cls-7" d="M129.17,87.66c-2.48-9.85-5.52-20.44-6-21.91-3.54-10.14-6.94-18.9-15.37-26A29,29,0,0,0,105.43,38c-.12.18-.24.36-.34.54a9.55,9.55,0,0,0-1.8.54l1.17,1c-.35,1.14-.59,2.42-1,3.75C99.56,57.62,84.59,66,80.26,79.69a25.09,25.09,0,0,0,1.68,19.18A23.22,23.22,0,0,0,97.19,110.5c6,1.29,12.2,0,18.1-1.55,5.59-1.5,11.17-3.32,16.94-3.65C133.3,105.24,131.47,96.76,129.17,87.66Z"/><g class="cls-8"><path class="cls-9" d="M123.13,65.75c-3.54-10.14-6.94-18.9-15.37-26a34.76,34.76,0,0,0-15.92-7.15A92.73,92.73,0,0,1,108,93.93a57.79,57.79,0,0,1-3.17,14.67c-5.93,15.8-20.79,26.7-36.45,33a69,69,0,0,1-20.26,5.07c6.21,3,13.29,4.25,20.14,4.91,11,1,23.9.83,34.76-1.65,11.14-2.56,21.8-9.4,26.68-20,4.3-9.38,3-22.79,1.61-32.68C129.79,86.48,126.63,75.76,123.13,65.75Z"/></g><path class="cls-9" d="M102.39,89.07c-6-1.53-12.08-2-18.77-2.82a51.91,51.91,0,0,0-18.69,1.59C58.75,89.43,53.13,91.46,48,95.4c-6.08,4.66-7.73,9.6-8.87,16.82C37.47,122.71,41.39,134,51.27,138.8a68.5,68.5,0,0,0,34.27,6.72c10.64-.65,28.21-3.07,34.26-13.4,3-5.09,4.36-12.79,3.89-18.62-.41-5.06-2.31-12.12-5.54-16.11C114.69,93.1,107.53,90.39,102.39,89.07Z"/><path class="cls-10" d="M65.66,108.89c6.45,0,6.45-10,0-10s-6.45,10,0,10Z"/><path class="cls-10" d="M96.88,108c6.45,0,6.45-10,0-10s-6.45,10,0,10Z"/><path class="cls-10" d="M68.87,83.19c3.87,0,3.87-6,0-6s-3.87,6,0,6Z"/><path class="cls-10" d="M93.67,82.75c3.87,0,3.87-6,0-6s-3.87,6,0,6Z"/><path class="cls-10" d="M88.88,115.41c-.29,0-.31,1.32-1.28,3a8.28,8.28,0,0,1-2.2,2.51,6.61,6.61,0,0,1-7.5.54,8.39,8.39,0,0,1-2.54-2.17c-1.21-1.53-1.42-2.84-1.7-2.8s-.45,1.47.68,3.48a8.14,8.14,0,0,0,2.75,2.86,7.59,7.59,0,0,0,9.31-.68A8.13,8.13,0,0,0,88.71,119C89.53,116.8,89.06,115.36,88.88,115.41Z"/><path class="cls-11" d="M83.15,49.65l.42-.37c-.89,2.83,1.19,6,4,7s6,.15,8.47-1.45c2.15-1.37,4-3.52,4.22-6.07-.63,2.16,1.2,4.35,3.28,5.23a8.08,8.08,0,0,0,7.4-.58c9.73-6.38-2.92-17.14-9-19.81-12.18-5.36-27.29-10-40.71-8.42-3.36.39-7.14,1.47-8.52,4.55a5.69,5.69,0,0,0,4.51,7.63,10.4,10.4,0,0,0-5.06,5,6,6,0,0,0,1.36,6.68c1.69,1.38,4.11,1.44,6.26,1a18.59,18.59,0,0,0,8.51-4A5.73,5.73,0,0,0,69,54.29c2.17,1.61,5.27,1.39,7.68.17A32.68,32.68,0,0,0,83.15,49.65Z"/><g class="cls-8"><path class="cls-9" d="M118.15,97.39c-2-2.49-5.25-4.43-8.62-5.89,1.27,8.4.64,16.88-3.39,24.26-3.75,6.88-10.17,12.08-17.3,15.33s-15,4.68-22.81,5.25c-6.88.51-14.25.16-20.75-2a20.87,20.87,0,0,0,6,4.41,68.5,68.5,0,0,0,34.27,6.72c10.64-.65,28.21-3.07,34.26-13.4,3-5.09,4.36-12.79,3.89-18.62C123.28,108.44,121.38,101.38,118.15,97.39Z"/></g></g></g></svg>