<svg xmlns="http://www.w3.org/2000/svg" viewBox="0 0 160 160"><defs><style>.cls-1{isolation:isolate;}.cls-2{fill:#fff;}.cls-3{fill:#eee1cf;}.cls-4{fill:#845840;}.cls-5{fill:#bf914c;}.cls-6{opacity:0.32;}.cls-6,.cls-9{mix-blend-mode:multiply;}.cls-7{fill:#f1bdc2;}.cls-8{fill:#231f20;}.cls-9{opacity:0.38;}.cls-10{fill:#ffeac5;}.cls-11{fill:#e5939f;}</style></defs><title>무제-2</title><g class="cls-1"><g id="레이어_1" data-name="레이어 1"><path class="cls-2" d="M47.91,77.78c-10,2-31,10.58-31.33,23-.1,3.69,2.93,7.54,6.61,7.25C20,112.13,18.8,118,21,122.72s7.94,7.73,12.89,6.11a10.22,10.22,0,0,0,16.5,10.5,12.7,12.7,0,0,0,22.56-2.4"/><path class="cls-2" d="M126,79.28c7.9,3.43,17.22,12.24,17.47,21.52.1,3.69-2.93,7.54-6.61,7.25,3.23,4.08,4.39,9.94,2.22,14.67s-7.94,7.73-12.89,6.11a10.22,10.22,0,0,1-16.5,10.5,12.7,12.7,0,0,1-22.56-2.4"/><path class="cls-3" d="M32.5,55.32c-5,12.48-4.78,28.8-2.39,41.86,2.43,13.23,7.74,26.79,18,36.1,9.8,8.91,27,12.77,39.8,9.36a57.5,57.5,0,0,0,29-18.59c8.54-10.22,12.62-22,14.09-35.21,1.55-14-.35-29-6.18-41.93"/><path class="cls-4" d="M41,56.15A52.9,52.9,0,0,0,15.43,71.59C9.27,78.31,1,89.11,7,98.3c1.91,3,6.09,3.78,9.44,2.69s6-3.68,8.2-6.4A53.38,53.38,0,0,0,36.4,65.46"/><path class="cls-4" d="M119,56.15a52.9,52.9,0,0,1,25.57,15.44C150.73,78.31,159,89.11,153,98.3c-1.91,3-6.09,3.78-9.44,2.69s-6-3.68-8.2-6.4a53.38,53.38,0,0,1-11.8-29.13"/><path class="cls-5" d="M63.88,100.45c5.15,0,5.15-8,0-8s-5.16,8,0,8Z"/><path class="cls-5" d="M96.13,100.2c5.15,0,5.15-8,0-8s-5.16,8,0,8Z"/><g class="cls-6"><path class="cls-7" d="M65,109.22c-2.44-5.17-13.12-5.53-15.94-.65a4.3,4.3,0,0,0-.62,2,5.11,5.11,0,0,0,1.44,3.5,10,10,0,0,0,11.88,2.23,7.16,7.16,0,0,0,3.05-2.92A4.73,4.73,0,0,0,65,109.22Z"/></g><g class="cls-6"><path class="cls-7" d="M111.23,109.22c-2.44-5.17-13.12-5.53-15.94-.65a4.3,4.3,0,0,0-.62,2,5.2,5.2,0,0,0,1.44,3.5A10,10,0,0,0,108,116.27a7.14,7.14,0,0,0,3-2.92A4.73,4.73,0,0,0,111.23,109.22Z"/></g><path class="cls-8" d="M80,116.62c.32,0,.58-2.61.58-5.84S80.32,105,80,105s-.58,2.61-.58,5.83S79.68,116.62,80,116.62Z"/><path class="cls-8" d="M87.76,109.61c-.19,0-.51,1.13-1.57,2.69a9.58,9.58,0,0,1-2.25,2.32,6.39,6.39,0,0,1-3.6,1.21,7.35,7.35,0,0,1-3.71-1,9.56,9.56,0,0,1-2.49-2.07c-1.23-1.43-1.73-2.55-1.9-2.48s.1,1.3,1.26,3a8.92,8.92,0,0,0,2.58,2.48A8,8,0,0,0,80.36,117a7,7,0,0,0,4.21-1.52,8.74,8.74,0,0,0,2.31-2.74C87.85,110.92,87.88,109.63,87.76,109.61Z"/><g class="cls-9"><path class="cls-10" d="M137.22,56.48c-1.26-3.87-5.31-6.47-10-6.29,3.73-2.84,3.42-9.18-.07-12.31s-9-3.21-13.15-1c-.82-4.39-3.55-9.9-8.21-11a13.14,13.14,0,0,0-12.73,4.43c-2.45-4.76-4.93-8.9-10.88-9.39a12.16,12.16,0,0,0-11.94,7.4,12.49,12.49,0,0,0-21.81,8.16C44.55,35.05,38.28,34.91,35.17,38a12.35,12.35,0,0,0-2.38,13,10.63,10.63,0,0,0-9.38,5.5,9.5,9.5,0,0,0,1.37,10.64,8.62,8.62,0,0,0,10.47,1.46c-1.47.92,2.67,7.83,3.31,8.69,1.67,2.23,3.61,5,6.19,6.15,6.16,2.85,14,.21,18.52-4.44a12.2,12.2,0,0,0,11.44,9.12c6,0,8.65-4.45,11.1-9.25,2.26,4.64,7.29,7.94,12.44,7.62,5.45-.34,8.73-4.75,10.36-9.66a11.42,11.42,0,0,0,20.29-7.36,6,6,0,0,0,5.92-2.31,14.25,14.25,0,0,0,2.57-6.12A8.59,8.59,0,0,0,137.22,56.48Z"/></g><path class="cls-11" d="M83.62,107.56a14.41,14.41,0,0,0,2.82-2.09c1.21-1.2,3.41-2.66,3.88-4.35a2.3,2.3,0,0,0-.5-2.34c-.73-.64-1.3-.28-2.11-.28a31.09,31.09,0,0,0-7.17,3.94.64.64,0,0,1-.38.18.6.6,0,0,1-.31-.08c-1.42-.62-9.28-5.87-10.22-3.28-.51,1.38,2.44,4.56,3.34,5.45,2,2,4.47,4.21,7.34,4A7.47,7.47,0,0,0,83.62,107.56Z"/><path class="cls-2" d="M137.22,52.15c-1.26-3.87-5.31-6.47-10-6.3,3.73-2.83,3.42-9.17-.07-12.31s-9-3.2-13.15-1c-.82-4.4-3.55-9.9-8.21-11a13.14,13.14,0,0,0-12.73,4.43c-2.45-4.75-4.93-8.89-10.88-9.38a12.16,12.16,0,0,0-11.94,7.4A12.49,12.49,0,0,0,48.46,32.1c-3.91-1.39-10.18-1.53-13.29,1.58a12.37,12.37,0,0,0-2.38,13,10.62,10.62,0,0,0-9.38,5.49,9.5,9.5,0,0,0,1.37,10.64,8.62,8.62,0,0,0,10.47,1.47c-1.47.91,2.67,7.82,3.31,8.68,1.67,2.23,3.61,5,6.19,6.15,6.16,2.86,14,.22,18.52-4.43a12.21,12.21,0,0,0,11.44,9.12c6,0,8.65-4.46,11.1-9.25,2.26,4.63,7.29,7.94,12.44,7.62,5.45-.34,8.73-4.76,10.36-9.67a11.42,11.42,0,0,0,20.29-7.35,6,6,0,0,0,5.92-2.31,14.3,14.3,0,0,0,2.57-6.12A8.59,8.59,0,0,0,137.22,52.15Z"/></g></g></svg>